<svg width="375" height="190" viewBox="0 0 375 190" fill="none" xmlns="http://www.w3.org/2000/svg">
<g opacity="0.8" clip-path="url(#clip0)">
<path fill-rule="evenodd" clip-rule="evenodd" d="M2.52328 -2.95391C5.38685 -3.23005 7.95558 -1.14845 8.25741 1.69334C8.56809 4.61865 6.37098 7.21686 3.39137 7.44651C0.525263 7.66786 -2.02254 5.51498 -2.24485 2.68342C-2.46974 -0.172594 -0.351405 -2.67706 2.52328 -2.95391Z" fill="#FF5353" fill-opacity="0.8"/>
<path fill-rule="evenodd" clip-rule="evenodd" d="M11.9381 2.47563C11.7564 -0.382631 13.9934 -2.8908 16.8481 -3.02975C19.7303 -3.17022 22.0809 -0.996438 22.3262 1.92788C22.5145 4.16625 20.8972 7.19569 17.4031 7.42065C14.4997 7.60769 12.1238 5.39411 11.9381 2.47563Z" fill="#FF5353" fill-opacity="0.8"/>
<path fill-rule="evenodd" clip-rule="evenodd" d="M36.5259 1.57228C36.841 4.42013 34.7215 7.0549 31.883 7.3433C29.016 7.63475 26.4742 5.52088 26.2034 2.62027C25.9409 -0.190222 27.9237 -2.66536 30.7203 -3.01839C33.5598 -3.37597 36.2103 -1.28064 36.5259 1.57228Z" fill="#FF5353" fill-opacity="0.8"/>
<path fill-rule="evenodd" clip-rule="evenodd" d="M50.5999 1.77491C50.8577 4.61905 48.8762 7.02735 46.0268 7.33138C43.117 7.64229 40.5438 5.54529 40.303 2.66716C40.0702 -0.113828 42.136 -2.61645 44.9163 -2.92062C47.8114 -3.2379 50.3337 -1.15372 50.5999 1.77491Z" fill="#FF5353" fill-opacity="0.8"/>
<path fill-rule="evenodd" clip-rule="evenodd" d="M64.8193 1.69934C65.0837 4.50124 63.0865 6.94618 60.2756 7.26106C57.3831 7.58507 54.8437 5.52089 54.5786 2.62901C54.325 -0.137161 56.3725 -2.66257 59.1237 -2.97626C61.9603 -3.29993 64.548 -1.17601 64.8193 1.69934Z" fill="#FF5353" fill-opacity="0.8"/>
<path fill-rule="evenodd" clip-rule="evenodd" d="M73.304 -2.94609C76.126 -3.23181 78.6218 -1.23441 78.9314 1.5571C79.2376 4.3219 77.22 6.93513 74.4489 7.23366C71.7222 7.52748 69.0504 5.78202 68.7165 2.59322C68.4223 -0.220454 70.4724 -2.65934 73.304 -2.94609Z" fill="#FF5353" fill-opacity="0.8"/>
<path fill-rule="evenodd" clip-rule="evenodd" d="M93.1001 1.63016C93.4078 4.4564 91.4586 6.87388 88.6624 7.25299C86.3606 7.56475 83.3275 6.07924 82.9451 2.63239C82.642 -0.103339 84.8099 -2.64198 87.5482 -2.9151C90.3267 -3.19248 92.7951 -1.17164 93.1001 1.63016Z" fill="#FF5353" fill-opacity="0.8"/>
<path fill-rule="evenodd" clip-rule="evenodd" d="M107.342 1.57376C107.652 4.36476 105.648 6.84498 102.833 7.15324C100.016 7.46178 97.5171 5.47778 97.2122 2.69091C96.9096 -0.0700724 98.9591 -2.62554 101.721 -2.93201C104.483 -3.23837 107.035 -1.19278 107.342 1.57376Z" fill="#FF5353" fill-opacity="0.8"/>
<path fill-rule="evenodd" clip-rule="evenodd" d="M135.63 1.6596C135.907 4.44748 133.85 6.93523 131.07 7.17355C128.382 7.40357 125.956 5.43331 125.625 2.75139C125.285 0.00830957 127.329 -2.57322 130.083 -2.87973C132.84 -3.18606 135.352 -1.13063 135.63 1.6596Z" fill="#FF5353" fill-opacity="0.8"/>
<path fill-rule="evenodd" clip-rule="evenodd" d="M3.5116 21.3269C0.702212 21.6472 -1.84639 19.6013 -2.09437 16.8271C-2.33617 14.1198 -0.349301 11.7007 2.36902 11.3933C5.18419 11.0747 7.7207 13.1121 7.97227 15.8939C8.21702 18.598 6.23101 21.0166 3.5116 21.3269Z" fill="#FF5353" fill-opacity="0.8"/>
<path fill-rule="evenodd" clip-rule="evenodd" d="M115.902 -2.90975C118.744 -3.1944 121.145 -1.20095 121.401 1.65466C121.646 4.40676 119.739 6.76376 116.997 7.09697C114.175 7.44019 111.71 5.47773 111.398 2.63798C111.085 -0.208733 113.046 -2.62415 115.902 -2.90975Z" fill="#FF5353" fill-opacity="0.8"/>
<path fill-rule="evenodd" clip-rule="evenodd" d="M16.7166 11.4162C19.4979 11.1744 21.9848 13.3025 22.1627 16.0767C22.3368 18.793 20.3161 21.1747 17.6307 21.4184C14.8634 21.6689 12.3789 19.549 12.1821 16.7684C11.9922 14.0888 14.0612 11.6469 16.7166 11.4162Z" fill="#FF5353" fill-opacity="0.8"/>
<path fill-rule="evenodd" clip-rule="evenodd" d="M145.372 7.05878C142.563 7.4061 140.052 5.42614 139.76 2.63327C139.476 -0.0816118 141.396 -2.4881 144.116 -2.82408C146.947 -3.17427 149.432 -1.22052 149.731 1.59036C150.017 4.29193 148.079 6.72406 145.372 7.05878Z" fill="#FF5353" fill-opacity="0.8"/>
<path fill-rule="evenodd" clip-rule="evenodd" d="M44.9012 11.4175C47.5955 11.0823 50.1701 13.0116 50.4435 15.7048C50.7822 19.0438 48.2867 20.9989 46.1339 21.2188C43.3811 21.5005 40.9421 19.6655 40.5802 16.9439C40.2267 14.2887 42.21 11.7519 44.9012 11.4175Z" fill="#FF5353" fill-opacity="0.8"/>
<path fill-rule="evenodd" clip-rule="evenodd" d="M178.048 1.43553C178.232 3.9016 176.806 6.47774 173.713 6.93178C170.97 7.33462 168.359 5.22484 168.114 2.47915C167.877 -0.180054 169.92 -2.67043 172.565 -2.94811C175.208 -3.22509 177.732 -1.20695 178.048 1.43553Z" fill="#FF5353" fill-opacity="0.8"/>
<path fill-rule="evenodd" clip-rule="evenodd" d="M158.359 -2.88154C161.1 -3.21378 163.535 -1.33263 163.886 1.38832C164.242 4.15762 162.416 6.58017 159.689 6.95808C156.829 7.35414 154.353 5.44707 154.038 2.60715C153.734 -0.139706 155.632 -2.55082 158.359 -2.88154Z" fill="#FF5353" fill-opacity="0.8"/>
<path fill-rule="evenodd" clip-rule="evenodd" d="M26.3791 16.9604C26.0585 14.2013 27.9213 11.8187 30.665 11.4778C33.4898 11.1269 35.9861 13.107 36.2541 15.9118C36.5121 18.6131 34.5306 21.0298 31.8219 21.3175C29.0901 21.6077 26.6962 19.6914 26.3791 16.9604Z" fill="#FF5353" fill-opacity="0.8"/>
<path fill-rule="evenodd" clip-rule="evenodd" d="M192.2 1.58367C192.481 4.31705 190.536 6.71405 187.812 6.98934C185.127 7.26052 182.651 5.24706 182.384 2.57555C182.115 -0.124095 184.096 -2.52813 186.822 -2.80838C189.583 -3.09323 191.914 -1.18897 192.2 1.58367Z" fill="#FF5353" fill-opacity="0.8"/>
<path fill-rule="evenodd" clip-rule="evenodd" d="M59.2926 11.5071C62.0683 11.244 64.3851 13.1904 64.6268 15.9896C64.8562 18.6412 62.9555 20.9877 60.3221 21.3034C57.6708 21.6219 55.1056 19.5693 54.8285 16.9073C54.547 14.2048 56.5635 11.7657 59.2926 11.5071Z" fill="#FF5353" fill-opacity="0.8"/>
<path fill-rule="evenodd" clip-rule="evenodd" d="M69.0286 16.9388C68.6992 14.1713 70.5796 11.7919 73.3353 11.489C76.0558 11.1897 78.5141 13.1627 78.7799 15.8585C79.0348 18.4426 77.1066 20.8737 74.5251 21.2212C71.8249 21.585 69.3525 19.6588 69.0286 16.9388Z" fill="#FF5353" fill-opacity="0.8"/>
<path fill-rule="evenodd" clip-rule="evenodd" d="M206.421 1.4697C206.728 4.20648 204.787 6.60344 202.037 6.88383C199.388 7.15447 197.023 5.29765 196.677 2.67617C196.318 -0.0322621 198.242 -2.53143 200.942 -2.86628C203.645 -3.20101 206.117 -1.24538 206.421 1.4697Z" fill="#FF5353" fill-opacity="0.8"/>
<path fill-rule="evenodd" clip-rule="evenodd" d="M229.34 -2.78309C232.073 -3.09395 234.45 -1.15718 234.713 1.59495C234.964 4.22702 233.069 6.58316 230.455 6.88886C227.809 7.19841 225.253 5.12708 225.025 2.4879C224.799 -0.124882 226.731 -2.48597 229.34 -2.78309Z" fill="#FF5353" fill-opacity="0.8"/>
<path fill-rule="evenodd" clip-rule="evenodd" d="M210.83 2.58321C210.511 -0.190569 212.33 -2.58388 215.164 -2.87794C217.858 -3.15712 220.117 -1.3847 220.499 1.36833C220.867 4.01322 219.026 6.40054 216.378 6.77612C213.596 7.17052 211.172 5.33906 210.83 2.58321Z" fill="#FF5353" fill-opacity="0.8"/>
<path fill-rule="evenodd" clip-rule="evenodd" d="M239.211 2.54345C238.913 -0.103202 240.775 -2.52221 243.407 -2.83168C245.757 -3.10749 248.476 -1.66613 248.857 1.55509C249.166 4.17166 247.135 6.54604 244.509 6.81562C241.86 7.08724 239.51 5.19282 239.211 2.54345Z" fill="#FF5353" fill-opacity="0.8"/>
<path fill-rule="evenodd" clip-rule="evenodd" d="M101.684 11.5702C104.355 11.2748 106.722 13.1254 107.05 15.7661C107.386 18.4685 105.361 20.9705 102.649 21.2035C100.014 21.4297 97.6311 19.4628 97.3715 16.848C97.1091 14.2101 99.0253 11.8643 101.684 11.5702Z" fill="#FF5353" fill-opacity="0.8"/>
<path fill-rule="evenodd" clip-rule="evenodd" d="M88.65 21.1261C85.9017 21.4376 83.5117 19.4914 83.2557 16.7335C83.0103 14.0933 84.9209 11.7215 87.5362 11.4203C90.2267 11.1103 92.7005 13.1334 92.9464 15.8439C93.187 18.5046 91.299 20.826 88.65 21.1261Z" fill="#FF5353" fill-opacity="0.8"/>
<path fill-rule="evenodd" clip-rule="evenodd" d="M111.663 16.9227C111.333 14.2841 113.158 11.8863 115.775 11.5215C118.459 11.1473 120.99 13.1153 121.277 15.7996C121.551 18.3659 119.579 20.8282 117.008 21.1297C114.405 21.4356 111.99 19.5341 111.663 16.9227Z" fill="#FF5353" fill-opacity="0.8"/>
<path fill-rule="evenodd" clip-rule="evenodd" d="M135.321 15.7031C135.628 18.3428 133.754 20.7313 131.128 21.0481C128.515 21.3629 126.105 19.4618 125.785 16.8338C125.468 14.2348 127.393 11.7826 129.993 11.4724C132.6 11.1614 135.016 13.08 135.321 15.7031Z" fill="#FF5353" fill-opacity="0.8"/>
<path fill-rule="evenodd" clip-rule="evenodd" d="M7.7591 30.111C8.01949 32.7337 6.07268 35.121 3.46558 35.3765C0.861205 35.6312 -1.52741 33.6588 -1.7783 31.0463C-2.03128 28.4098 -0.0929381 26.0439 2.52444 25.7929C5.15069 25.5419 7.4976 27.4777 7.7591 30.111Z" fill="#FF5353" fill-opacity="0.8"/>
<path fill-rule="evenodd" clip-rule="evenodd" d="M277.24 1.51185C277.51 4.13581 275.58 6.52605 272.971 6.79719C270.373 7.06748 267.971 5.10123 267.707 2.49104C267.442 -0.141358 269.37 -2.51839 271.986 -2.78172C274.611 -3.04571 276.968 -1.11991 277.24 1.51185Z" fill="#FF5353" fill-opacity="0.8"/>
<path fill-rule="evenodd" clip-rule="evenodd" d="M263.003 1.4616C263.278 4.15409 261.416 6.43824 258.722 6.71368C256.034 6.98797 253.748 5.12186 253.472 2.42798C253.197 -0.26083 255.069 -2.56135 257.753 -2.83437C260.438 -3.10781 262.728 -1.23372 263.003 1.4616Z" fill="#FF5353" fill-opacity="0.8"/>
<path fill-rule="evenodd" clip-rule="evenodd" d="M12.3591 31.0958C12.0514 28.4847 13.9865 26.0575 16.6002 25.7766C19.1285 25.5048 21.4646 27.3386 21.8228 29.8753C22.1919 32.493 20.3276 34.9495 17.714 35.2887C15.1151 35.6259 12.6671 33.7093 12.3591 31.0958Z" fill="#FF5353" fill-opacity="0.8"/>
<path fill-rule="evenodd" clip-rule="evenodd" d="M291.335 1.55872C291.554 4.19841 289.55 6.55827 286.936 6.737C284.307 6.91689 281.982 4.88307 281.815 2.257C281.655 -0.270806 283.604 -2.56037 286.123 -2.8047C288.749 -3.0584 291.116 -1.07632 291.335 1.55872Z" fill="#FF5353" fill-opacity="0.8"/>
<path fill-rule="evenodd" clip-rule="evenodd" d="M145.215 20.9591C143.153 21.2525 140.325 19.8297 139.999 16.5971C139.732 13.9596 141.786 11.6739 144.467 11.4755C147.024 11.286 149.321 13.198 149.575 15.7262C149.839 18.3532 147.875 20.7107 145.215 20.9591Z" fill="#FF5353" fill-opacity="0.8"/>
<path fill-rule="evenodd" clip-rule="evenodd" d="M163.728 15.7506C164.023 18.3837 162.099 20.7723 159.484 21.0212C156.957 21.2612 154.626 19.4124 154.292 16.9034C153.948 14.3097 155.839 11.8559 158.436 11.5292C161.033 11.202 163.434 13.1167 163.728 15.7506Z" fill="#FF5353" fill-opacity="0.8"/>
<path fill-rule="evenodd" clip-rule="evenodd" d="M172.643 11.5325C175.191 11.2651 177.517 13.0957 177.843 15.6251C178.178 18.2217 176.246 20.6751 173.642 20.9596C171.034 21.2446 168.688 19.2817 168.454 16.6189C168.227 14.0366 170.066 11.8029 172.643 11.5325Z" fill="#FF5353" fill-opacity="0.8"/>
<path fill-rule="evenodd" clip-rule="evenodd" d="M36.0329 30.0713C36.3225 32.6746 34.5595 34.929 31.9733 35.2626C29.2756 35.6102 26.9378 33.7906 26.6466 31.1157C26.3565 28.45 28.2642 26.1167 30.929 25.877C33.4991 25.6465 35.7459 27.493 36.0329 30.0713Z" fill="#FF5353" fill-opacity="0.8"/>
<path fill-rule="evenodd" clip-rule="evenodd" d="M319.649 1.3818C319.863 3.88573 318.325 6.20785 315.637 6.6226C313.017 7.02635 310.578 5.18111 310.241 2.56236C309.922 0.0798393 311.739 -2.3185 314.242 -2.71592C316.775 -3.118 319.298 -1.20654 319.649 1.3818Z" fill="#FF5353" fill-opacity="0.8"/>
<path fill-rule="evenodd" clip-rule="evenodd" d="M300.326 -2.77715C302.933 -3.04985 305.18 -1.27148 305.495 1.31176C305.822 3.98668 303.961 6.34442 301.305 6.62051C298.653 6.89606 296.337 4.96645 296.105 2.28888C295.881 -0.294273 297.724 -2.50582 300.326 -2.77715Z" fill="#FF5353" fill-opacity="0.8"/>
<path fill-rule="evenodd" clip-rule="evenodd" d="M186.865 11.5295C189.44 11.2551 191.743 13.0719 192.055 15.6241C192.374 18.2238 190.382 20.6528 187.753 20.8729C185.203 21.0864 182.903 19.1666 182.667 16.6276C182.429 14.0567 184.283 11.8043 186.865 11.5295Z" fill="#FF5353" fill-opacity="0.8"/>
<path fill-rule="evenodd" clip-rule="evenodd" d="M40.9216 31.137C40.5954 28.4929 42.4771 26.09 45.0796 25.8262C47.5813 25.5726 49.9409 27.4426 50.2669 29.936C50.6069 32.5391 48.6984 34.935 46.0618 35.216C43.4809 35.4901 41.2384 33.7113 40.9216 31.137Z" fill="#FF5353" fill-opacity="0.8"/>
<path fill-rule="evenodd" clip-rule="evenodd" d="M333.806 1.54627C334.029 4.09642 332.122 6.39973 329.605 6.61998C327.088 6.84075 324.745 4.92699 324.473 2.42912C324.19 -0.181795 326.168 -2.51882 328.834 -2.72266C331.434 -2.92144 333.576 -1.08201 333.806 1.54627Z" fill="#FF5353" fill-opacity="0.8"/>
<path fill-rule="evenodd" clip-rule="evenodd" d="M201.87 20.8755C199.272 21.1002 197.035 19.2204 196.821 16.6325C196.61 14.082 198.572 11.756 201.097 11.5634C203.662 11.3679 205.925 13.2925 206.145 15.8579C206.367 18.4436 204.488 20.6492 201.87 20.8755Z" fill="#FF5353" fill-opacity="0.8"/>
<path fill-rule="evenodd" clip-rule="evenodd" d="M64.3179 30.0803C64.6249 32.3892 62.9682 34.8405 60.1633 35.1813C57.6632 35.4852 55.2922 33.5473 54.9942 31.0499C54.6837 28.447 56.6466 26.0836 59.3073 25.8584C61.9097 25.6384 64.0697 27.4582 64.3179 30.0803Z" fill="#FF5353" fill-opacity="0.8"/>
<path fill-rule="evenodd" clip-rule="evenodd" d="M338.656 2.29319C338.416 -0.304596 340.269 -2.52008 342.876 -2.75224C345.435 -2.98028 347.753 -1.05631 347.964 1.47267C348.176 4.00345 346.223 6.32699 343.696 6.55252C341.14 6.78114 338.895 4.88405 338.656 2.29319Z" fill="#FF5353" fill-opacity="0.8"/>
<path fill-rule="evenodd" clip-rule="evenodd" d="M74.507 35.17C71.9382 35.4877 69.6026 33.6888 69.2861 31.1491C68.9697 28.6103 70.7974 26.2444 73.3278 25.9173C75.8517 25.5908 78.2232 27.4321 78.5455 29.9698C78.8707 32.5259 77.0629 34.8542 74.507 35.17Z" fill="#FF5353" fill-opacity="0.8"/>
<path fill-rule="evenodd" clip-rule="evenodd" d="M215.298 11.5989C217.818 11.3042 220.095 13.1848 220.367 15.7764C220.631 18.2821 218.631 20.626 216.138 20.8419C213.576 21.0637 211.35 19.1945 211.106 16.6162C210.861 14.0274 212.688 11.8403 215.298 11.5989Z" fill="#FF5353" fill-opacity="0.8"/>
<path fill-rule="evenodd" clip-rule="evenodd" d="M357.994 6.43946C355.402 6.71387 353.149 4.8656 352.904 2.26139C352.661 -0.311802 354.58 -2.62197 357.125 -2.82093C359.601 -3.01453 361.81 -1.19015 362.102 1.28695C362.405 3.87751 360.581 6.16554 357.994 6.43946Z" fill="#FF5353" fill-opacity="0.8"/>
<path fill-rule="evenodd" clip-rule="evenodd" d="M376.336 1.67304C376.477 4.14454 374.607 6.28349 372.126 6.48783C369.582 6.69694 367.227 4.72841 367.122 2.21948C367.001 -0.65041 369.111 -2.56882 371.472 -2.6993C374.052 -2.84223 376.185 -0.955196 376.336 1.67304Z" fill="#FF5353" fill-opacity="0.8"/>
<path fill-rule="evenodd" clip-rule="evenodd" d="M106.826 29.9416C107.117 32.5246 105.302 34.7897 102.73 35.054C100.19 35.315 97.855 33.4046 97.636 30.8867C97.4217 28.421 99.2097 26.2227 101.679 25.9175C104.282 25.5957 106.535 27.3567 106.826 29.9416Z" fill="#FF5353" fill-opacity="0.8"/>
<path fill-rule="evenodd" clip-rule="evenodd" d="M121.082 29.974C121.313 32.4142 119.471 34.7017 117.035 35.0025C114.536 35.3109 112.122 33.3679 111.883 30.8553C111.642 28.3188 113.603 26.0097 116.156 25.8243C118.618 25.6459 120.851 27.5275 121.082 29.974Z" fill="#FF5353" fill-opacity="0.8"/>
<path fill-rule="evenodd" clip-rule="evenodd" d="M234.516 15.7492C234.741 18.3108 232.806 20.6101 230.283 20.7806C227.718 20.9537 225.536 19.0262 225.356 16.4276C225.183 13.9291 226.99 11.7926 229.485 11.5462C232.06 11.2914 234.288 13.153 234.516 15.7492Z" fill="#FF5353" fill-opacity="0.8"/>
<path fill-rule="evenodd" clip-rule="evenodd" d="M83.4562 31.0363C83.1705 28.4476 85.0062 26.1532 87.5677 25.8988C90.1342 25.6439 92.3911 27.5234 92.6263 30.1114C92.8554 32.6329 91.1191 34.7815 88.6055 35.0867C85.9864 35.4046 83.7436 33.6407 83.4562 31.0363Z" fill="#FF5353" fill-opacity="0.8"/>
<path fill-rule="evenodd" clip-rule="evenodd" d="M244.477 20.7618C241.997 20.9944 239.758 19.197 239.471 16.7433C239.175 14.2084 241.076 11.8959 243.65 11.6593C246.138 11.4304 248.366 13.2234 248.652 15.6847C248.948 18.2248 247.06 20.5191 244.477 20.7618Z" fill="#FF5353" fill-opacity="0.8"/>
<path fill-rule="evenodd" clip-rule="evenodd" d="M258.789 20.6854C256.204 20.9708 253.953 19.1336 253.725 16.5527C253.506 14.0708 255.293 11.9047 257.785 11.6321C260.351 11.3511 262.667 13.2313 262.872 15.7605C263.073 18.2397 261.273 20.4113 258.789 20.6854Z" fill="#FF5353" fill-opacity="0.8"/>
<path fill-rule="evenodd" clip-rule="evenodd" d="M126.09 30.8849C125.856 28.3518 127.613 26.2305 130.157 25.9733C132.702 25.716 134.833 27.4376 135.114 29.9783C135.404 32.6011 133.584 34.8066 130.954 35.0202C128.443 35.2239 126.324 33.4222 126.09 30.8849Z" fill="#FF5353" fill-opacity="0.8"/>
<path fill-rule="evenodd" clip-rule="evenodd" d="M7.54455 44.3614C7.78992 46.8602 6.01239 49.0695 3.53863 49.3407C0.985046 49.6209 -1.26546 47.7267 -1.47288 45.1236C-1.66912 42.6523 0.209126 40.4285 2.65526 40.2358C5.13982 40.04 7.29913 41.8622 7.54455 44.3614Z" fill="#FF5353" fill-opacity="0.8"/>
<path fill-rule="evenodd" clip-rule="evenodd" d="M271.986 11.5665C274.439 11.3414 276.678 13.1864 276.933 15.6436C277.189 18.109 275.393 20.3655 272.939 20.6636C270.409 20.9706 268.09 19.0519 267.882 16.4796C267.681 13.9875 269.514 11.7937 271.986 11.5665Z" fill="#FF5353" fill-opacity="0.8"/>
<path fill-rule="evenodd" clip-rule="evenodd" d="M286.225 11.7027C288.559 11.4109 290.872 13.102 291.17 15.759C291.445 18.2116 289.536 20.4429 287.06 20.6761C284.589 20.9091 282.316 19.0421 282.102 16.604C281.883 14.1271 283.722 11.9421 286.225 11.7027Z" fill="#FF5353" fill-opacity="0.8"/>
<path fill-rule="evenodd" clip-rule="evenodd" d="M16.7655 40.2788C19.0918 39.9948 21.4079 41.7015 21.6884 44.3603C21.9482 46.8188 20.0312 49.0336 17.5527 49.2558C15.083 49.4772 12.8125 47.5926 12.6155 45.1582C12.4143 42.6753 14.2579 40.5079 16.7655 40.2788Z" fill="#FF5353" fill-opacity="0.8"/>
<path fill-rule="evenodd" clip-rule="evenodd" d="M163.398 29.8271C163.706 32.3337 161.989 34.5595 159.506 34.8713C157.058 35.1789 154.759 33.3958 154.451 30.9512C154.146 28.5246 155.947 26.2046 158.379 25.8887C160.827 25.5713 163.093 27.35 163.398 29.8271Z" fill="#FF5353" fill-opacity="0.8"/>
<path fill-rule="evenodd" clip-rule="evenodd" d="M145.4 34.8997C142.87 35.2066 140.696 33.5423 140.36 31.0419C140.013 28.4602 141.804 26.186 144.39 25.9253C146.861 25.6762 149.077 27.4598 149.352 29.9195C149.63 32.4068 147.892 34.5976 145.4 34.8997Z" fill="#FF5353" fill-opacity="0.8"/>
<path fill-rule="evenodd" clip-rule="evenodd" d="M305.217 15.7284C305.454 18.2514 303.654 20.3777 301.102 20.5919C298.67 20.7962 296.574 19.0769 296.296 16.6492C296.01 14.152 297.8 11.9175 300.292 11.6598C302.789 11.4016 304.982 13.2131 305.217 15.7284Z" fill="#FF5353" fill-opacity="0.8"/>
<path fill-rule="evenodd" clip-rule="evenodd" d="M172.81 26.0063C175.322 25.7824 177.453 27.5974 177.649 30.1284C177.834 32.5225 176.068 34.6494 173.676 34.912C171.203 35.1836 168.973 33.3683 168.729 30.8849C168.483 28.3797 170.28 26.2317 172.81 26.0063Z" fill="#FF5353" fill-opacity="0.8"/>
<path fill-rule="evenodd" clip-rule="evenodd" d="M35.8241 44.2508C36.0828 46.8004 34.3319 48.9173 31.7698 49.1522C29.3561 49.3736 27.2007 47.6546 26.894 45.264C26.5809 42.8219 28.4073 40.5103 30.8696 40.2319C33.3799 39.9485 35.5682 41.7233 35.8241 44.2508Z" fill="#FF5353" fill-opacity="0.8"/>
<path fill-rule="evenodd" clip-rule="evenodd" d="M310.561 16.5144C310.315 14.0302 312.147 11.8043 314.6 11.6048C316.952 11.4138 319.148 13.1929 319.442 15.5282C319.752 17.9768 317.959 20.2233 315.476 20.4968C312.95 20.775 310.811 19.0421 310.561 16.5144Z" fill="#FF5353" fill-opacity="0.8"/>
<path fill-rule="evenodd" clip-rule="evenodd" d="M41.0758 45.0706C40.8396 42.5881 42.6866 40.3644 45.1374 40.1801C47.4946 40.0029 49.6785 41.7889 49.9618 44.1259C50.2592 46.5781 48.4578 48.8129 45.972 49.0765C43.4466 49.3448 41.3167 47.602 41.0758 45.0706Z" fill="#FF5353" fill-opacity="0.8"/>
<path fill-rule="evenodd" clip-rule="evenodd" d="M187.751 34.8207C185.327 35.0688 183.195 33.3795 182.886 30.9645C182.569 28.4874 184.371 26.211 186.85 25.9588C189.227 25.7165 191.42 27.4619 191.732 29.8421C192.055 32.3107 190.253 34.5642 187.751 34.8207Z" fill="#FF5353" fill-opacity="0.8"/>
<path fill-rule="evenodd" clip-rule="evenodd" d="M78.3245 44.2211C78.5732 46.6546 76.8785 48.7684 74.457 49.0443C71.9886 49.3257 69.6922 47.4443 69.5244 45.0031C69.3616 42.6361 71.2205 40.4451 73.5621 40.244C75.9592 40.0383 78.0774 41.807 78.3245 44.2211Z" fill="#FF5353" fill-opacity="0.8"/>
<path fill-rule="evenodd" clip-rule="evenodd" d="M59.3682 40.3088C61.7743 40.0999 63.8844 41.8368 64.148 44.2435C64.4185 46.7102 62.5671 48.9629 60.105 49.1638C57.711 49.3593 55.5927 47.5981 55.336 45.199C55.0669 42.6879 56.8483 40.528 59.3682 40.3088Z" fill="#FF5353" fill-opacity="0.8"/>
<path fill-rule="evenodd" clip-rule="evenodd" d="M205.91 29.9643C206.135 32.4233 204.434 34.4458 201.965 34.7332C199.797 34.9855 197.495 33.5705 197.101 30.8546C196.753 28.447 198.758 26.0884 201.186 25.9187C203.608 25.7492 205.688 27.5307 205.91 29.9643Z" fill="#FF5353" fill-opacity="0.8"/>
<path fill-rule="evenodd" clip-rule="evenodd" d="M328.752 11.6433C331.176 11.3918 333.304 13.0657 333.613 15.4676C333.929 17.9146 332.109 20.2236 329.666 20.4761C327.212 20.7299 324.99 18.863 324.792 16.3807C324.599 13.9524 326.318 11.8958 328.752 11.6433Z" fill="#FF5353" fill-opacity="0.8"/>
<path fill-rule="evenodd" clip-rule="evenodd" d="M342.805 11.6937C345.154 11.4058 347.409 13.1619 347.718 15.5191C348.031 17.9048 346.343 20.1289 343.964 20.4651C341.483 20.816 339.192 19.0446 338.926 16.5695C338.672 14.2084 340.442 11.983 342.805 11.6937Z" fill="#FF5353" fill-opacity="0.8"/>
<path fill-rule="evenodd" clip-rule="evenodd" d="M215.298 26.04C217.686 25.7853 219.863 27.5137 220.148 29.8907C220.44 32.3271 218.554 34.6385 216.122 34.8246C213.756 35.005 211.581 33.1775 211.362 30.8261C211.142 28.4507 212.915 26.2936 215.298 26.04Z" fill="#FF5353" fill-opacity="0.8"/>
<path fill-rule="evenodd" clip-rule="evenodd" d="M234.194 29.9606C234.428 32.3929 232.704 34.501 230.293 34.73C227.881 34.9592 225.798 33.2218 225.559 30.783C225.323 28.3728 227.082 26.214 229.46 25.9931C231.857 25.7706 233.961 27.5338 234.194 29.9606Z" fill="#FF5353" fill-opacity="0.8"/>
<path fill-rule="evenodd" clip-rule="evenodd" d="M106.619 44.2073C106.887 46.6248 105.178 48.7915 102.793 49.0561C100.414 49.32 98.2612 47.5709 97.998 45.1594C97.732 42.7253 99.4197 40.5983 101.829 40.3311C104.236 40.0643 106.349 41.7751 106.619 44.2073Z" fill="#FF5353" fill-opacity="0.8"/>
<path fill-rule="evenodd" clip-rule="evenodd" d="M357.993 20.3804C355.549 20.6274 353.452 18.9232 353.204 16.4878C352.957 14.069 354.691 11.9333 357.121 11.7064C359.635 11.4715 361.691 13.1413 361.922 15.609C362.196 18.5353 359.956 20.28 357.993 20.3804Z" fill="#FF5353" fill-opacity="0.8"/>
<path fill-rule="evenodd" clip-rule="evenodd" d="M88.5836 48.9499C86.1333 49.2303 84.0106 47.5643 83.7273 45.139C83.4446 42.7198 85.1431 40.5716 87.5636 40.2864C89.9633 40.0035 92.1691 41.727 92.4588 44.1114C92.7467 46.4783 90.9883 48.6744 88.5836 48.9499Z" fill="#FF5353" fill-opacity="0.8"/>
<path fill-rule="evenodd" clip-rule="evenodd" d="M371.149 11.6953C373.59 11.409 375.708 13.0619 375.998 15.4799C376.288 17.8984 374.614 20.0305 372.194 20.3244C369.787 20.6166 367.618 18.9293 367.318 16.5324C367.022 14.1585 368.75 11.9768 371.149 11.6953Z" fill="#FF5353" fill-opacity="0.8"/>
<path fill-rule="evenodd" clip-rule="evenodd" d="M112.073 45.0919C111.829 42.745 113.688 40.4912 116.031 40.2912C118.314 40.0963 120.46 41.8176 120.762 44.0841C121.073 46.4238 119.291 48.6942 116.927 48.9711C114.564 49.2473 112.318 47.4521 112.073 45.0919Z" fill="#FF5353" fill-opacity="0.8"/>
<path fill-rule="evenodd" clip-rule="evenodd" d="M243.628 26.0358C246.064 25.7668 248.186 27.4757 248.423 29.8956C248.659 32.3118 246.913 34.4036 244.475 34.6252C242.147 34.8371 240.091 33.1794 239.799 30.8568C239.495 28.4351 241.187 26.3059 243.628 26.0358Z" fill="#FF5353" fill-opacity="0.8"/>
<path fill-rule="evenodd" clip-rule="evenodd" d="M7.22386 58.4936C7.45594 60.823 5.81262 62.9066 3.50869 63.2032C1.13939 63.5086 -1.04295 61.7509 -1.2878 59.3407C-1.52435 57.0132 0.118461 54.9381 2.43388 54.6398C4.81975 54.3322 6.98296 56.0723 7.22386 58.4936Z" fill="#FF5353" fill-opacity="0.8"/>
<path fill-rule="evenodd" clip-rule="evenodd" d="M276.716 29.9959C276.913 32.3164 275.211 34.3932 272.913 34.6374C270.53 34.891 268.395 33.1044 268.187 30.6839C267.988 28.3655 269.689 26.2958 271.996 26.0493C274.395 25.7926 276.509 27.5612 276.716 29.9959Z" fill="#FF5353" fill-opacity="0.8"/>
<path fill-rule="evenodd" clip-rule="evenodd" d="M130.21 40.3348C132.577 40.087 134.61 41.6926 134.91 44.0465C135.218 46.4705 133.508 48.6265 131.082 48.8702C128.667 49.1133 126.527 47.3325 126.336 44.9216C126.152 42.5969 127.855 40.5808 130.21 40.3348Z" fill="#FF5353" fill-opacity="0.8"/>
<path fill-rule="evenodd" clip-rule="evenodd" d="M258.655 34.5335C256.303 34.7754 254.222 33.1465 253.927 30.8331C253.621 28.4327 255.349 26.257 257.766 25.9993C260.189 25.741 262.303 27.5022 262.497 29.9402C262.686 32.3045 261.024 34.2897 258.655 34.5335Z" fill="#FF5353" fill-opacity="0.8"/>
<path fill-rule="evenodd" clip-rule="evenodd" d="M140.542 45.0519C140.321 42.7045 142.012 40.6117 144.323 40.3736C146.699 40.1282 148.908 41.9866 149.068 44.3652C149.224 46.6821 147.446 48.7375 145.124 48.9231C142.757 49.1121 140.765 47.4289 140.542 45.0519Z" fill="#FF5353" fill-opacity="0.8"/>
<path fill-rule="evenodd" clip-rule="evenodd" d="M286.212 26.0689C288.559 25.8125 290.646 27.4395 290.936 29.7524C291.235 32.1312 289.455 34.3235 287.052 34.5392C284.725 34.7477 282.698 33.0551 282.461 30.7048C282.223 28.3383 283.85 26.3274 286.212 26.0689Z" fill="#FF5353" fill-opacity="0.8"/>
<path fill-rule="evenodd" clip-rule="evenodd" d="M12.9695 59.1681C12.7835 56.8068 14.4614 54.8422 16.8428 54.634C19.1813 54.4294 21.2425 56.1281 21.4671 58.4443C21.6978 60.8261 19.8551 62.9766 17.4541 63.1281C15.1273 63.275 13.1559 61.5341 12.9695 59.1681Z" fill="#FF5353" fill-opacity="0.8"/>
<path fill-rule="evenodd" clip-rule="evenodd" d="M163.242 44.0554C163.546 46.3011 161.884 48.4959 159.614 48.8472C157.296 49.2054 155.017 47.4248 154.761 45.056C154.512 42.7457 156.176 40.6804 158.506 40.409C160.836 40.1373 162.93 41.7499 163.242 44.0554Z" fill="#FF5353" fill-opacity="0.8"/>
<path fill-rule="evenodd" clip-rule="evenodd" d="M304.983 29.8822C305.196 32.2524 303.526 34.239 301.145 34.4462C298.812 34.6488 296.721 32.9048 296.537 30.603C296.353 28.3058 298.129 26.2062 300.427 26.0055C302.758 25.8022 304.771 27.5149 304.983 29.8822Z" fill="#FF5353" fill-opacity="0.8"/>
<path fill-rule="evenodd" clip-rule="evenodd" d="M177.404 44.1855C177.622 46.5187 175.912 48.5823 173.599 48.7805C171.317 48.9758 169.177 47.1922 168.984 44.9347C168.786 42.6254 170.513 40.5834 172.848 40.3647C175.194 40.1448 177.184 41.8129 177.404 44.1855Z" fill="#FF5353" fill-opacity="0.8"/>
<path fill-rule="evenodd" clip-rule="evenodd" d="M35.5138 58.5936C35.7163 60.9616 34.0343 62.9355 31.6489 63.1292C29.3168 63.3182 27.2255 61.5564 27.0623 59.264C26.8988 56.974 28.7155 54.8482 30.9802 54.679C33.3172 54.5049 35.3108 56.2262 35.5138 58.5936Z" fill="#FF5353" fill-opacity="0.8"/>
<path fill-rule="evenodd" clip-rule="evenodd" d="M191.553 44.1304C191.732 46.4467 190.176 48.543 187.786 48.7689C185.505 48.9852 183.524 47.465 183.217 45.2177C182.897 42.8739 184.485 40.7672 186.81 40.4511C189.073 40.1435 191.273 41.8508 191.553 44.1304Z" fill="#FF5353" fill-opacity="0.8"/>
<path fill-rule="evenodd" clip-rule="evenodd" d="M314.491 26.158C316.854 25.8603 318.95 27.4834 319.216 29.8157C319.48 32.1264 317.762 34.2772 315.464 34.5129C313.256 34.7391 311.169 33.1057 310.852 30.9016C310.518 28.582 312.151 26.4533 314.491 26.158Z" fill="#FF5353" fill-opacity="0.8"/>
<path fill-rule="evenodd" clip-rule="evenodd" d="M45.0777 54.7248C47.436 54.4612 49.5112 56.1243 49.741 58.4633C49.9682 60.7769 48.2069 62.9061 45.9109 63.0931C43.6839 63.2742 41.642 61.6216 41.3594 59.41C41.0625 57.0861 42.7277 54.988 45.0777 54.7248Z" fill="#FF5353" fill-opacity="0.8"/>
<path fill-rule="evenodd" clip-rule="evenodd" d="M59.2663 54.6794C61.5684 54.4054 63.7152 56.0913 63.9646 58.3684C64.2108 60.6198 62.4357 62.7948 60.1755 63.0107C57.9621 63.2226 55.9382 61.6034 55.6458 59.3873C55.3376 57.0534 56.9509 54.9557 59.2663 54.6794Z" fill="#FF5353" fill-opacity="0.8"/>
<path fill-rule="evenodd" clip-rule="evenodd" d="M339.223 30.6854C338.954 28.4131 340.725 26.2361 343.001 26.0401C345.229 25.8486 347.229 27.494 347.485 29.7304C347.743 31.9791 346.181 34.0149 343.959 34.3261C341.658 34.6485 339.495 32.9859 339.223 30.6854Z" fill="#FF5353" fill-opacity="0.8"/>
<path fill-rule="evenodd" clip-rule="evenodd" d="M201.293 40.4439C203.567 40.2699 205.469 41.8847 205.691 44.1775C205.919 46.5469 204.226 48.5565 201.864 48.7188C199.506 48.881 197.575 47.1443 197.445 44.7453C197.323 42.4827 198.988 40.6207 201.293 40.4439Z" fill="#FF5353" fill-opacity="0.8"/>
<path fill-rule="evenodd" clip-rule="evenodd" d="M215.203 40.4124C217.417 40.1491 219.519 41.7754 219.818 43.9834C220.125 46.252 218.35 48.4751 216.073 48.6756C213.869 48.8691 211.779 47.1557 211.548 44.9648C211.315 42.7592 212.987 40.6762 215.203 40.4124Z" fill="#FF5353" fill-opacity="0.8"/>
<path fill-rule="evenodd" clip-rule="evenodd" d="M333.283 29.8633C333.501 32.1201 331.888 34.1524 329.658 34.4342C327.354 34.7251 325.241 33.0067 325.013 30.6569C324.783 28.2964 326.497 26.2599 328.857 26.0895C331.11 25.9266 333.065 27.5931 333.283 29.8633Z" fill="#FF5353" fill-opacity="0.8"/>
<path fill-rule="evenodd" clip-rule="evenodd" d="M83.9825 59.1991C83.7986 56.9631 85.4588 54.9864 87.7135 54.7575C90.0484 54.5202 92.15 56.2869 92.2717 58.5879C92.3903 60.8337 90.6921 62.7476 88.4236 62.9247C86.1745 63.0998 84.1646 61.4139 83.9825 59.1991Z" fill="#FF5353" fill-opacity="0.8"/>
<path fill-rule="evenodd" clip-rule="evenodd" d="M78.011 58.4441C78.2587 60.7005 76.7031 62.6866 74.459 62.9801C72.1132 63.2867 70.0125 61.665 69.7598 59.3523C69.5066 57.0354 71.2122 54.9834 73.5572 54.7837C75.8194 54.591 77.764 56.1896 78.011 58.4441Z" fill="#FF5353" fill-opacity="0.8"/>
<path fill-rule="evenodd" clip-rule="evenodd" d="M367.639 30.3468C367.54 28.112 369.363 26.153 371.592 26.101C373.859 26.0481 375.69 27.789 375.795 30.0987C375.898 32.3499 374.074 34.3117 371.85 34.3413C369.548 34.3727 367.742 32.6596 367.639 30.3468Z" fill="#FF5353" fill-opacity="0.8"/>
<path fill-rule="evenodd" clip-rule="evenodd" d="M229.405 40.3837C231.612 40.0945 233.716 41.7402 233.992 43.9721C234.268 46.203 232.646 48.2922 230.422 48.572C228.208 48.8501 226.107 47.2079 225.835 44.9868C225.562 42.757 227.176 40.6756 229.405 40.3837Z" fill="#FF5353" fill-opacity="0.8"/>
<path fill-rule="evenodd" clip-rule="evenodd" d="M106.303 58.5335C106.538 60.3218 105.258 62.6678 102.509 62.9071C100.24 63.1047 98.3365 61.3618 98.167 59.0677C98.0011 56.8163 99.7276 54.8088 101.965 54.6867C104.072 54.5715 106.195 56.1172 106.303 58.5335Z" fill="#FF5353" fill-opacity="0.8"/>
<path fill-rule="evenodd" clip-rule="evenodd" d="M357.146 26.1859C359.399 25.9867 361.398 27.634 361.614 29.8658C361.831 32.1179 360.216 34.0954 357.953 34.3461C355.597 34.6071 353.552 32.9194 353.377 30.5689C353.211 28.3259 354.879 26.3862 357.146 26.1859Z" fill="#FF5353" fill-opacity="0.8"/>
<path fill-rule="evenodd" clip-rule="evenodd" d="M115.982 54.8469C118.261 54.5726 120.289 56.1614 120.537 58.415C120.783 60.6546 119.122 62.6901 116.871 62.9083C114.68 63.1211 112.758 61.5961 112.468 59.4152C112.162 57.1054 113.686 55.1235 115.982 54.8469Z" fill="#FF5353" fill-opacity="0.8"/>
<path fill-rule="evenodd" clip-rule="evenodd" d="M243.521 40.5109C245.766 40.221 247.837 41.8299 248.1 44.0688C248.355 46.2325 246.836 48.2212 244.685 48.5418C242.37 48.8861 240.356 47.4051 240.038 45.1258C239.72 42.841 241.258 40.8031 243.521 40.5109Z" fill="#FF5353" fill-opacity="0.8"/>
<path fill-rule="evenodd" clip-rule="evenodd" d="M130.168 54.794C132.383 54.5017 134.468 56.1115 134.74 58.3229C135.002 60.4522 133.476 62.4487 131.34 62.7708C129.068 63.1139 127.034 61.6378 126.684 59.3922C126.344 57.2082 127.952 55.0869 130.168 54.794Z" fill="#FF5353" fill-opacity="0.8"/>
<path fill-rule="evenodd" clip-rule="evenodd" d="M257.801 40.4489C259.974 40.1942 262.098 41.8989 262.32 44.0763C262.536 46.2016 260.978 48.1707 258.84 48.4735C256.6 48.7905 254.532 47.2348 254.237 45.0105C253.949 42.8336 255.611 40.7059 257.801 40.4489Z" fill="#FF5353" fill-opacity="0.8"/>
<path fill-rule="evenodd" clip-rule="evenodd" d="M144.495 54.739C146.738 54.5791 148.688 56.3012 148.816 58.5544C148.94 60.7348 147.338 62.5489 145.128 62.7334C142.858 62.9228 140.927 61.241 140.803 58.967C140.686 56.8278 142.379 54.8902 144.495 54.739Z" fill="#FF5353" fill-opacity="0.8"/>
<path fill-rule="evenodd" clip-rule="evenodd" d="M-1.0077 73.4743C-1.18513 71.2375 0.521901 69.2923 2.79031 69.145C4.98317 69.003 6.78766 70.5745 6.98516 72.7979C7.18582 75.0555 5.48853 77.031 3.24492 77.1522C1.11736 77.2673 -0.841613 75.5731 -1.0077 73.4743Z" fill="#FF5353" fill-opacity="0.8"/>
<path fill-rule="evenodd" clip-rule="evenodd" d="M272.166 40.471C274.368 40.2809 276.214 41.8078 276.449 44.0132C276.691 46.2749 275.036 48.3013 272.816 48.4645C270.694 48.6205 268.706 46.9821 268.473 44.8851C268.228 42.6733 269.906 40.6667 272.166 40.471Z" fill="#FF5353" fill-opacity="0.8"/>
<path fill-rule="evenodd" clip-rule="evenodd" d="M16.7633 69.1041C18.8853 68.8403 20.9123 70.4097 21.1982 72.5378C21.487 74.6886 19.9766 76.696 17.8366 77.0065C15.589 77.3325 13.5193 75.7426 13.2766 73.5025C13.0455 71.3675 14.6288 69.3696 16.7633 69.1041Z" fill="#FF5353" fill-opacity="0.8"/>
<path fill-rule="evenodd" clip-rule="evenodd" d="M290.613 44.1007C290.828 46.2415 289.234 48.2074 287.083 48.4537C284.806 48.7143 282.856 47.0999 282.672 44.8019C282.499 42.6417 284.126 40.7086 286.272 40.5249C288.392 40.3435 290.402 41.9991 290.613 44.1007Z" fill="#FF5353" fill-opacity="0.8"/>
<path fill-rule="evenodd" clip-rule="evenodd" d="M158.741 54.8659C160.893 54.6863 162.855 56.3189 163.049 58.4504C163.241 60.5651 161.596 62.5737 159.485 62.8018C157.252 63.0433 155.268 61.3612 155.101 59.0855C154.942 56.9061 156.545 55.0489 158.741 54.8659Z" fill="#FF5353" fill-opacity="0.8"/>
<path fill-rule="evenodd" clip-rule="evenodd" d="M169.224 59.2911C168.938 57.1993 170.539 55.122 172.654 54.8412C174.787 54.5577 176.792 56.12 177.063 58.2763C177.337 60.4641 175.837 62.4201 173.67 62.6984C171.519 62.975 169.518 61.4413 169.224 59.2911Z" fill="#FF5353" fill-opacity="0.8"/>
<path fill-rule="evenodd" clip-rule="evenodd" d="M35.2879 72.6614C35.4997 74.8744 33.9562 76.7375 31.7328 76.9527C29.5155 77.1678 27.6548 75.6303 27.4415 73.4072C27.2317 71.2215 28.8206 69.2808 30.9842 69.0789C33.1548 68.8762 35.0792 70.4784 35.2879 72.6614Z" fill="#FF5353" fill-opacity="0.8"/>
<path fill-rule="evenodd" clip-rule="evenodd" d="M300.445 40.5019C302.611 40.2853 304.547 41.8792 304.768 44.061C304.992 46.2755 303.46 48.148 301.24 48.3737C299.021 48.5992 297.151 47.0729 296.927 44.8523C296.706 42.6673 298.282 40.7187 300.445 40.5019Z" fill="#FF5353" fill-opacity="0.8"/>
<path fill-rule="evenodd" clip-rule="evenodd" d="M59.244 69.1468C61.3522 68.8807 63.3945 70.5147 63.6126 72.6421C63.8241 74.7022 62.33 76.63 60.2881 76.9319C58.1537 77.2473 56.1247 75.716 55.8386 73.5729C55.552 71.4294 57.1002 69.417 59.244 69.1468Z" fill="#FF5353" fill-opacity="0.8"/>
<path fill-rule="evenodd" clip-rule="evenodd" d="M45.1491 69.1835C47.3088 68.9405 49.2445 70.4859 49.4908 72.6496C49.7361 74.804 48.1852 76.7779 46.048 77.0302C43.9443 77.2785 41.9162 75.6626 41.6739 73.5452C41.4299 71.407 43.0097 69.4244 45.1491 69.1835Z" fill="#FF5353" fill-opacity="0.8"/>
<path fill-rule="evenodd" clip-rule="evenodd" d="M328.741 40.5677C330.852 40.3111 332.888 41.9514 333.097 44.0784C333.3 46.1411 331.801 48.0611 329.758 48.3562C327.622 48.6648 325.599 47.1267 325.32 44.9824C325.041 42.8368 326.597 40.8282 328.741 40.5677Z" fill="#FF5353" fill-opacity="0.8"/>
<path fill-rule="evenodd" clip-rule="evenodd" d="M318.886 43.9212C319.16 46.0632 317.617 48.034 315.451 48.3089C313.293 48.5831 311.299 47.0532 311.027 44.9146C310.755 42.778 312.307 40.8044 314.467 40.5394C316.646 40.2715 318.613 41.7772 318.886 43.9212Z" fill="#FF5353" fill-opacity="0.8"/>
<path fill-rule="evenodd" clip-rule="evenodd" d="M191.312 58.3107C191.54 60.4595 189.934 62.3964 187.751 62.6049C185.578 62.8121 183.621 61.1877 183.459 59.0422C183.302 56.9629 184.831 55.1214 186.922 54.8713C189.107 54.6092 191.084 56.1582 191.312 58.3107Z" fill="#FF5353" fill-opacity="0.8"/>
<path fill-rule="evenodd" clip-rule="evenodd" d="M73.4864 69.1831C75.6232 68.9351 77.4546 70.3371 77.7442 72.4425C78.0486 74.6574 76.5794 76.5825 74.3906 76.837C72.1971 77.092 70.3089 75.5546 70.1031 73.3452C69.9047 71.2236 71.3636 69.4302 73.4864 69.1831Z" fill="#FF5353" fill-opacity="0.8"/>
<path fill-rule="evenodd" clip-rule="evenodd" d="M347.249 44.0303C347.475 46.233 345.916 48.1019 343.707 48.275C341.607 48.4394 339.811 46.9337 339.59 44.822C339.359 42.6106 340.901 40.771 343.136 40.5923C345.264 40.4222 347.03 41.8983 347.249 44.0303Z" fill="#FF5353" fill-opacity="0.8"/>
<path fill-rule="evenodd" clip-rule="evenodd" d="M201.043 54.8468C203.165 54.5952 205.019 56.0139 205.316 58.1158C205.632 60.3551 204.187 62.2516 201.965 62.5138C199.826 62.7663 197.983 61.3622 197.689 59.2563C197.379 57.0383 198.848 55.1071 201.043 54.8468Z" fill="#FF5353" fill-opacity="0.8"/>
<path fill-rule="evenodd" clip-rule="evenodd" d="M91.9146 72.6444C92.1472 74.6798 90.6018 76.6209 88.5394 76.8835C86.4789 77.1463 84.5294 75.6607 84.2296 73.5993C83.9245 71.5016 85.5772 69.4142 87.6972 69.2193C89.7419 69.0314 91.6817 70.6072 91.9146 72.6444Z" fill="#FF5353" fill-opacity="0.8"/>
<path fill-rule="evenodd" clip-rule="evenodd" d="M215.264 54.9187C217.332 54.6574 219.282 56.1476 219.571 58.2101C219.871 60.3494 218.268 62.3933 216.125 62.6056C214.045 62.8112 212.183 61.2836 211.945 59.1765C211.706 57.063 213.171 55.183 215.264 54.9187Z" fill="#FF5353" fill-opacity="0.8"/>
<path fill-rule="evenodd" clip-rule="evenodd" d="M357.23 40.5527C359.298 40.3843 361.206 41.9709 361.394 44.013C361.591 46.1688 359.935 48.0558 357.729 48.1914C355.647 48.3193 353.782 46.6819 353.674 44.6319C353.564 42.541 355.15 40.7216 357.23 40.5527Z" fill="#FF5353" fill-opacity="0.8"/>
<path fill-rule="evenodd" clip-rule="evenodd" d="M229.591 54.9209C231.288 54.6635 233.458 55.7837 233.786 58.3162C234.052 60.3746 232.424 62.2919 230.35 62.5002C228.267 62.7089 226.356 61.1543 226.148 59.0818C225.939 56.9936 227.477 55.1343 229.591 54.9209Z" fill="#FF5353" fill-opacity="0.8"/>
<path fill-rule="evenodd" clip-rule="evenodd" d="M375.531 44.0933C375.731 46.1946 374.189 48.0822 372.125 48.261C370.072 48.439 368.145 46.8437 367.951 44.8042C367.754 42.7319 369.307 40.8786 371.413 40.6739C373.549 40.4666 375.326 41.942 375.531 44.0933Z" fill="#FF5353" fill-opacity="0.8"/>
<path fill-rule="evenodd" clip-rule="evenodd" d="M101.91 69.2529C104.045 69.0357 105.832 70.5036 106.046 72.6511C106.255 74.7567 104.729 76.6431 102.661 76.8362C100.612 77.0274 98.6776 75.4417 98.4701 73.4013C98.2597 71.3332 99.8075 69.4669 101.91 69.2529Z" fill="#FF5353" fill-opacity="0.8"/>
<path fill-rule="evenodd" clip-rule="evenodd" d="M243.642 54.875C245.715 54.6333 247.631 56.1802 247.847 58.2683C248.055 60.2908 246.639 62.1003 244.628 62.3807C242.504 62.6769 240.594 61.2403 240.324 59.144C240.057 57.0656 241.572 55.1169 243.642 54.875Z" fill="#FF5353" fill-opacity="0.8"/>
<path fill-rule="evenodd" clip-rule="evenodd" d="M116.068 69.223C118.187 68.9731 120.062 70.4657 120.279 72.5745C120.495 74.6612 118.931 76.5684 116.853 76.7524C114.862 76.9285 113.024 75.4553 112.758 73.4706C112.477 71.3727 113.959 69.4714 116.068 69.223Z" fill="#FF5353" fill-opacity="0.8"/>
<path fill-rule="evenodd" clip-rule="evenodd" d="M257.848 55.0217C259.97 54.7603 261.893 56.2674 262.088 58.3427C262.274 60.3163 260.776 62.1909 258.804 62.4537C256.733 62.7297 254.821 61.1921 254.606 59.0783C254.398 57.0207 255.793 55.2746 257.848 55.0217Z" fill="#FF5353" fill-opacity="0.8"/>
<path fill-rule="evenodd" clip-rule="evenodd" d="M272.11 54.9633C274.113 54.7836 275.881 56.2324 276.111 58.241C276.349 60.3238 274.805 62.2416 272.757 62.406C270.793 62.5635 268.944 61.0564 268.71 59.1071C268.465 57.0655 270.038 55.1489 272.11 54.9633Z" fill="#FF5353" fill-opacity="0.8"/>
<path fill-rule="evenodd" clip-rule="evenodd" d="M134.362 72.8582C134.412 74.981 132.731 76.679 130.584 76.6743C128.559 76.6698 126.959 75.0659 126.905 72.9864C126.852 70.9688 128.461 69.2276 130.448 69.1512C132.559 69.0701 134.312 70.7297 134.362 72.8582Z" fill="#FF5353" fill-opacity="0.8"/>
<path fill-rule="evenodd" clip-rule="evenodd" d="M-0.604648 87.677C-0.844041 85.6265 0.542766 83.8183 2.56231 83.5477C4.67302 83.2651 6.54068 84.7673 6.73875 86.9081C6.92617 88.9352 5.45252 90.7521 3.45123 90.9615C1.44805 91.1707 -0.368701 89.6994 -0.604648 87.677Z" fill="#FF5353" fill-opacity="0.8"/>
<path fill-rule="evenodd" clip-rule="evenodd" d="M158.59 69.2641C160.572 69.0563 162.41 70.5182 162.657 72.4966C162.911 74.5334 161.295 76.5049 159.261 76.6414C157.269 76.7746 155.494 75.2617 155.31 73.2734C155.125 71.2829 156.607 69.4716 158.59 69.2641Z" fill="#FF5353" fill-opacity="0.8"/>
<path fill-rule="evenodd" clip-rule="evenodd" d="M282.957 58.9721C282.775 57.0177 284.301 55.1411 286.249 54.9228C288.283 54.695 290.24 56.3371 290.363 58.3738C290.483 60.3512 288.925 62.1466 286.956 62.3032C284.985 62.46 283.139 60.9223 282.957 58.9721Z" fill="#FF5353" fill-opacity="0.8"/>
<path fill-rule="evenodd" clip-rule="evenodd" d="M144.532 69.308C146.59 69.1141 148.332 70.5386 148.547 72.5917C148.762 74.6328 147.342 76.4192 145.311 76.6654C143.22 76.9184 141.28 75.3402 141.135 73.2658C140.992 71.247 142.492 69.5001 144.532 69.308Z" fill="#FF5353" fill-opacity="0.8"/>
<path fill-rule="evenodd" clip-rule="evenodd" d="M16.8301 83.664C18.8428 83.4655 20.6477 84.9039 20.877 86.8902C21.1152 88.9516 19.5499 90.802 17.4348 90.9596C15.4369 91.1085 13.6355 89.5838 13.4828 87.616C13.3286 85.6204 14.8174 83.8625 16.8301 83.664Z" fill="#FF5353" fill-opacity="0.8"/>
<path fill-rule="evenodd" clip-rule="evenodd" d="M35.0327 86.9134C35.2221 88.973 33.765 90.6902 31.6842 90.8595C29.6392 91.026 27.8785 89.5105 27.7543 87.4767C27.6358 85.5407 29.0757 83.8455 31.0154 83.6365C33.0586 83.417 34.8453 84.8742 35.0327 86.9134Z" fill="#FF5353" fill-opacity="0.8"/>
<path fill-rule="evenodd" clip-rule="evenodd" d="M172.751 69.2462C174.731 68.9909 176.558 70.4318 176.802 72.4425C177.048 74.463 175.651 76.2811 173.658 76.5339C171.676 76.7852 169.848 75.3454 169.604 73.3397C169.359 71.3239 170.759 69.5027 172.751 69.2462Z" fill="#FF5353" fill-opacity="0.8"/>
<path fill-rule="evenodd" clip-rule="evenodd" d="M300.448 55.0651C302.494 54.8206 304.296 56.2486 304.51 58.2854C304.718 60.2577 303.392 61.9716 301.439 62.2529C299.386 62.5491 297.543 61.1889 297.265 59.1718C296.988 57.1659 298.43 55.3062 300.448 55.0651Z" fill="#FF5353" fill-opacity="0.8"/>
<path fill-rule="evenodd" clip-rule="evenodd" d="M191.054 72.5563C191.269 74.5618 189.811 76.3235 187.776 76.5168C185.809 76.704 184.146 75.3853 183.888 73.4333C183.619 71.3934 184.99 69.6023 187.009 69.3569C189.002 69.1152 190.842 70.5696 191.054 72.5563Z" fill="#FF5353" fill-opacity="0.8"/>
<path fill-rule="evenodd" clip-rule="evenodd" d="M328.79 55.0107C330.798 54.7604 332.681 56.2582 332.857 58.245C333.024 60.1399 331.574 61.9431 329.686 62.1872C327.725 62.4408 325.799 60.8967 325.616 58.9247C325.439 57.0113 326.867 55.2501 328.79 55.0107Z" fill="#FF5353" fill-opacity="0.8"/>
<path fill-rule="evenodd" clip-rule="evenodd" d="M41.9473 87.5244C41.7652 85.4996 43.2737 83.7032 45.2665 83.5717C47.1609 83.4464 48.9124 84.897 49.139 86.7786C49.3781 88.7638 47.8998 90.6125 45.9072 90.8201C43.8832 91.0305 42.1313 89.5724 41.9473 87.5244Z" fill="#FF5353" fill-opacity="0.8"/>
<path fill-rule="evenodd" clip-rule="evenodd" d="M311.441 59.0839C311.194 57.0641 312.62 55.2293 314.612 55.006C316.569 54.7868 318.444 56.3149 318.633 58.2834C318.817 60.1892 317.435 61.9413 315.527 62.2225C313.523 62.518 311.689 61.1093 311.441 59.0839Z" fill="#FF5353" fill-opacity="0.8"/>
<path fill-rule="evenodd" clip-rule="evenodd" d="M342.925 55.0167C344.893 54.7842 346.625 56.1156 346.885 58.0622C347.155 60.081 345.681 61.9352 343.667 62.1115C341.739 62.28 339.996 60.8401 339.797 58.9156C339.594 56.9633 340.971 55.2472 342.925 55.0167Z" fill="#FF5353" fill-opacity="0.8"/>
<path fill-rule="evenodd" clip-rule="evenodd" d="M201.21 69.3111C203.21 69.1241 204.948 70.6275 205.098 72.6749C205.241 74.632 203.854 76.2602 201.884 76.4443C199.953 76.6249 198.211 75.2488 197.97 73.3506C197.722 71.4115 199.262 69.4929 201.21 69.3111Z" fill="#FF5353" fill-opacity="0.8"/>
<path fill-rule="evenodd" clip-rule="evenodd" d="M56.1908 87.7151C55.9505 85.7972 57.2996 84.0294 59.2182 83.749C61.2503 83.4518 63.0917 84.8257 63.3487 86.8301C63.5888 88.7027 62.2008 90.5306 60.3158 90.8243C58.3367 91.1326 56.4394 89.7031 56.1908 87.7151Z" fill="#FF5353" fill-opacity="0.8"/>
<path fill-rule="evenodd" clip-rule="evenodd" d="M70.411 87.6425C70.1788 85.77 71.6111 83.9281 73.5009 83.667C75.4349 83.3998 77.21 84.743 77.4871 86.6822C77.7849 88.7685 76.4238 90.5329 74.3495 90.7487C72.4076 90.9504 70.6493 89.5635 70.411 87.6425Z" fill="#FF5353" fill-opacity="0.8"/>
<path fill-rule="evenodd" clip-rule="evenodd" d="M87.6688 83.6468C89.5535 83.4082 91.3988 84.8401 91.6453 86.7331C91.8931 88.6343 90.4824 90.4152 88.541 90.6523C86.5553 90.8946 84.8522 89.5742 84.6141 87.607C84.3784 85.6573 85.7407 83.891 87.6688 83.6468Z" fill="#FF5353" fill-opacity="0.8"/>
<path fill-rule="evenodd" clip-rule="evenodd" d="M354.102 59.0552C353.853 57.105 355.199 55.3325 357.126 55.0712C359.006 54.8162 360.861 56.2345 361.125 58.1294C361.389 60.0261 359.988 61.8222 358.051 62.0715C356.064 62.326 354.351 61.0183 354.102 59.0552Z" fill="#FF5353" fill-opacity="0.8"/>
<path fill-rule="evenodd" clip-rule="evenodd" d="M215.348 69.3665C217.304 69.1288 219.033 70.4408 219.299 72.3644C219.572 74.3451 218.087 76.2267 216.11 76.4037C214.212 76.5736 212.45 75.1302 212.246 73.2393C212.037 71.3041 213.399 69.603 215.348 69.3665Z" fill="#FF5353" fill-opacity="0.8"/>
<path fill-rule="evenodd" clip-rule="evenodd" d="M226.442 73.2329C226.261 71.2988 227.684 69.5662 229.588 69.3993C231.502 69.2313 233.199 70.6681 233.376 72.6067C233.555 74.5611 232.166 76.2392 230.224 76.4172C228.285 76.5948 226.625 75.197 226.442 73.2329Z" fill="#FF5353" fill-opacity="0.8"/>
<path fill-rule="evenodd" clip-rule="evenodd" d="M375.152 58.0901C375.41 60.0495 374.063 61.797 372.114 62.0303C370.195 62.2599 368.386 60.8261 368.19 58.9212C368.001 57.08 369.329 55.3924 371.177 55.1265C373.164 54.8411 374.894 56.1306 375.152 58.0901Z" fill="#FF5353" fill-opacity="0.8"/>
<path fill-rule="evenodd" clip-rule="evenodd" d="M112.974 87.5055C112.815 85.6938 114.222 83.9563 116.033 83.7288C117.917 83.4916 119.773 84.9919 119.933 86.8823C120.096 88.801 118.571 90.5618 116.655 90.6679C114.822 90.7684 113.133 89.3168 112.974 87.5055Z" fill="#FF5353" fill-opacity="0.8"/>
<path fill-rule="evenodd" clip-rule="evenodd" d="M243.863 69.427C245.832 69.2671 247.49 70.7258 247.594 72.7118C247.694 74.5934 246.315 76.1468 244.403 76.3081C242.529 76.4667 240.873 75.116 240.663 73.256C240.443 71.3224 241.894 69.5868 243.863 69.427Z" fill="#FF5353" fill-opacity="0.8"/>
<path fill-rule="evenodd" clip-rule="evenodd" d="M101.947 83.672C103.924 83.4549 105.595 84.8166 105.784 86.7991C105.972 88.7734 104.567 90.4552 102.602 90.6077C100.715 90.7541 99.1202 89.4459 98.8872 87.5609C98.6423 85.5781 99.9713 83.889 101.947 83.672Z" fill="#FF5353" fill-opacity="0.8"/>
<path fill-rule="evenodd" clip-rule="evenodd" d="M127.248 87.4728C127.065 85.6066 128.413 83.9655 130.297 83.7567C132.205 83.5455 133.85 84.8241 134.091 86.7056C134.341 88.6565 132.919 90.397 130.947 90.5548C129.072 90.7047 127.431 89.3371 127.248 87.4728Z" fill="#FF5353" fill-opacity="0.8"/>
<path fill-rule="evenodd" clip-rule="evenodd" d="M258.021 69.4119C259.89 69.2745 261.521 70.6735 261.674 72.545C261.83 74.4365 260.489 76.027 258.577 76.2181C256.604 76.4157 254.899 74.9592 254.804 72.9955C254.714 71.1247 256.126 69.5513 258.021 69.4119Z" fill="#FF5353" fill-opacity="0.8"/>
<path fill-rule="evenodd" clip-rule="evenodd" d="M272.226 69.4901C274.092 69.3534 275.675 70.7033 275.85 72.5796C276.022 74.4296 274.676 76.101 272.854 76.298C270.947 76.5044 269.234 75.0394 269.102 73.0904C268.977 71.2396 270.377 69.6255 272.226 69.4901Z" fill="#FF5353" fill-opacity="0.8"/>
<path fill-rule="evenodd" clip-rule="evenodd" d="M3.35407 104.879C1.53251 105.066 -0.141167 103.711 -0.360556 101.871C-0.592731 99.9239 0.822412 98.1981 2.75916 98.0669C4.62821 97.9401 6.20143 99.2944 6.36853 101.174C6.53332 103.023 5.17559 104.691 3.35407 104.879Z" fill="#FF5353" fill-opacity="0.8"/>
<path fill-rule="evenodd" clip-rule="evenodd" d="M144.429 83.7215C146.293 83.5219 147.983 84.8703 148.19 86.7209C148.397 88.5746 147.046 90.2441 145.17 90.4524C143.262 90.6641 141.646 89.3704 141.439 87.4657C141.233 85.5754 142.553 83.9222 144.429 83.7215Z" fill="#FF5353" fill-opacity="0.8"/>
<path fill-rule="evenodd" clip-rule="evenodd" d="M290.095 72.5593C290.239 74.3904 288.832 76.0392 286.991 76.199C285.136 76.3598 283.545 74.9985 283.381 73.1094C283.215 71.2218 284.543 69.656 286.444 69.4969C288.297 69.3414 289.952 70.7282 290.095 72.5593Z" fill="#FF5353" fill-opacity="0.8"/>
<path fill-rule="evenodd" clip-rule="evenodd" d="M16.8359 98.0892C18.705 97.8751 20.38 99.1766 20.5981 101.012C20.814 102.833 19.4666 104.538 17.6334 104.765C15.7905 104.993 14.1253 103.674 13.9064 101.812C13.6835 99.9166 14.9516 98.3054 16.8359 98.0892Z" fill="#FF5353" fill-opacity="0.8"/>
<path fill-rule="evenodd" clip-rule="evenodd" d="M300.392 69.4671C302.215 69.2224 303.901 70.5634 304.108 72.4241C304.309 74.2249 303.114 75.8051 301.349 76.0721C299.495 76.3527 297.773 75.1037 297.49 73.2725C297.217 71.5078 298.588 69.7092 300.392 69.4671Z" fill="#FF5353" fill-opacity="0.8"/>
<path fill-rule="evenodd" clip-rule="evenodd" d="M155.653 87.2939C155.589 85.41 157.052 83.8742 158.961 83.8201C160.742 83.7693 162.309 85.1761 162.414 86.9194C162.524 88.7596 161.018 90.4717 159.221 90.5489C157.368 90.6283 155.714 89.1193 155.653 87.2939Z" fill="#FF5353" fill-opacity="0.8"/>
<path fill-rule="evenodd" clip-rule="evenodd" d="M169.914 87.4999C169.702 85.7582 170.991 84.0934 172.753 83.8309C174.647 83.5489 176.316 84.8259 176.532 86.7231C176.736 88.5211 175.512 90.1478 173.752 90.4161C171.948 90.6909 170.134 89.3122 169.914 87.4999Z" fill="#FF5353" fill-opacity="0.8"/>
<path fill-rule="evenodd" clip-rule="evenodd" d="M28.1625 101.816C27.9708 99.9558 29.3959 98.2318 31.2205 98.1171C32.9904 98.006 34.587 99.3475 34.7843 101.111C34.9939 102.986 33.6219 104.613 31.7053 104.762C29.874 104.906 28.3502 103.639 28.1625 101.816Z" fill="#FF5353" fill-opacity="0.8"/>
<path fill-rule="evenodd" clip-rule="evenodd" d="M45.2733 98.1741C47.0569 98.0031 48.636 99.2537 48.859 101.014C49.09 102.84 47.7138 104.558 45.886 104.726C44.1432 104.886 42.5153 103.583 42.2899 101.85C42.052 100.016 43.4015 98.3535 45.2733 98.1741Z" fill="#FF5353" fill-opacity="0.8"/>
<path fill-rule="evenodd" clip-rule="evenodd" d="M311.757 73.1076C311.553 71.2832 312.963 69.5805 314.789 69.4428C316.548 69.3104 318.135 70.6198 318.336 72.3674C318.547 74.2146 317.189 75.8415 315.305 75.9975C313.521 76.1455 311.952 74.8674 311.757 73.1076Z" fill="#FF5353" fill-opacity="0.8"/>
<path fill-rule="evenodd" clip-rule="evenodd" d="M187.657 90.3371C185.87 90.5001 184.297 89.1966 184.113 87.3992C183.93 85.617 185.219 83.9854 186.977 83.7714C188.787 83.5514 190.577 85.0283 190.685 86.8311C190.79 88.6102 189.439 90.1747 187.657 90.3371Z" fill="#FF5353" fill-opacity="0.8"/>
<path fill-rule="evenodd" clip-rule="evenodd" d="M59.5552 98.1186C61.3011 97.9886 62.9229 99.3475 63.0781 101.071C63.2334 102.791 61.8773 104.452 60.1623 104.645C58.3402 104.849 56.673 103.427 56.5547 101.568C56.4429 99.8051 57.7954 98.2502 59.5552 98.1186Z" fill="#FF5353" fill-opacity="0.8"/>
<path fill-rule="evenodd" clip-rule="evenodd" d="M328.785 69.5688C330.577 69.3522 332.165 70.6148 332.378 72.426C332.589 74.2201 331.329 75.8553 329.566 76.073C327.818 76.2892 326.176 74.9772 325.967 73.1973C325.755 71.3879 327 69.7847 328.785 69.5688Z" fill="#FF5353" fill-opacity="0.8"/>
<path fill-rule="evenodd" clip-rule="evenodd" d="M201.192 83.9213C203.019 83.6915 204.568 84.8879 204.797 86.7063C205.028 88.5459 203.843 90.0881 202.021 90.321C200.196 90.5537 198.643 89.3536 198.413 87.5335C198.183 85.7092 199.384 84.1484 201.192 83.9213Z" fill="#FF5353" fill-opacity="0.8"/>
<path fill-rule="evenodd" clip-rule="evenodd" d="M77.1204 100.887C77.3629 102.658 76.126 104.308 74.3701 104.555C72.6137 104.802 70.9599 103.551 70.7085 101.784C70.4606 100.045 71.7262 98.3533 73.4679 98.0953C75.1926 97.8401 76.8793 99.1287 77.1204 100.887Z" fill="#FF5353" fill-opacity="0.8"/>
<path fill-rule="evenodd" clip-rule="evenodd" d="M343.779 75.986C342.014 76.1891 340.385 74.8981 340.179 73.1329C339.974 71.3862 341.286 69.7176 343.025 69.5112C344.765 69.3043 346.411 70.62 346.615 72.3817C346.82 74.1546 345.539 75.7836 343.779 75.986Z" fill="#FF5353" fill-opacity="0.8"/>
<path fill-rule="evenodd" clip-rule="evenodd" d="M215.388 83.8631C217.129 83.6809 218.814 85.068 218.956 86.7986C219.092 88.4551 217.822 90.0423 216.167 90.2854C214.457 90.5372 212.711 89.1988 212.495 87.4702C212.279 85.7573 213.653 84.0448 215.388 83.8631Z" fill="#FF5353" fill-opacity="0.8"/>
<path fill-rule="evenodd" clip-rule="evenodd" d="M357.367 69.5451C359.142 69.3928 360.757 70.7609 360.853 72.4986C360.945 74.1788 359.675 75.6806 357.998 75.8754C356.231 76.0804 354.578 74.77 354.409 73.0303C354.238 71.2744 355.575 69.6987 357.367 69.5451Z" fill="#FF5353" fill-opacity="0.8"/>
<path fill-rule="evenodd" clip-rule="evenodd" d="M87.8379 98.2157C89.6017 98.0385 91.246 99.3894 91.3761 101.123C91.5092 102.893 90.1609 104.426 88.3576 104.556C86.6672 104.677 85.1434 103.432 84.9413 101.764C84.7328 100.032 86.0695 98.3934 87.8379 98.2157Z" fill="#FF5353" fill-opacity="0.8"/>
<path fill-rule="evenodd" clip-rule="evenodd" d="M102.006 98.1734C103.768 98.0373 105.308 99.4068 105.41 101.201C105.507 102.909 104.242 104.353 102.526 104.494C100.725 104.642 99.2159 103.314 99.1203 101.496C99.0313 99.8205 100.351 98.3013 102.006 98.1734Z" fill="#FF5353" fill-opacity="0.8"/>
<path fill-rule="evenodd" clip-rule="evenodd" d="M368.625 73.1778C368.402 71.4144 369.708 69.7604 371.449 69.6C373.12 69.4461 374.656 70.6873 374.869 72.3645C375.1 74.1705 373.851 75.741 372.048 75.9122C370.338 76.0748 368.84 74.8787 368.625 73.1778Z" fill="#FF5353" fill-opacity="0.8"/>
<path fill-rule="evenodd" clip-rule="evenodd" d="M226.78 87.4399C226.55 85.6879 227.877 84.0311 229.644 83.8657C231.349 83.7054 232.859 84.9227 233.072 86.6289C233.294 88.4115 231.992 90.0581 230.237 90.2144C228.578 90.3624 226.997 89.0938 226.78 87.4399Z" fill="#FF5353" fill-opacity="0.8"/>
<path fill-rule="evenodd" clip-rule="evenodd" d="M247.284 86.6866C247.499 88.4028 246.337 89.9282 244.634 90.1662C242.826 90.4185 241.232 89.1696 241.065 87.3704C240.909 85.6848 242.16 84.1477 243.84 83.9615C245.522 83.7748 247.072 85.0018 247.284 86.6866Z" fill="#FF5353" fill-opacity="0.8"/>
<path fill-rule="evenodd" clip-rule="evenodd" d="M119.647 101.252C119.644 102.93 118.234 104.41 116.608 104.441C114.815 104.475 113.396 103.061 113.396 101.242C113.396 99.5327 114.737 98.2258 116.508 98.2098C118.191 98.1941 119.65 99.6081 119.647 101.252Z" fill="#FF5353" fill-opacity="0.8"/>
<path fill-rule="evenodd" clip-rule="evenodd" d="M127.694 101.673C127.512 99.9494 128.768 98.4043 130.463 98.2632C132.072 98.13 133.536 99.3129 133.761 100.926C134.001 102.657 132.825 104.2 131.107 104.409C129.373 104.62 127.878 103.42 127.694 101.673Z" fill="#FF5353" fill-opacity="0.8"/>
<path fill-rule="evenodd" clip-rule="evenodd" d="M261.374 86.6613C261.587 88.3689 260.397 89.8828 258.677 90.0909C256.936 90.3016 255.442 89.1415 255.234 87.4184C255.031 85.7331 256.253 84.1491 257.918 83.9389C259.568 83.7309 261.165 84.9897 261.374 86.6613Z" fill="#FF5353" fill-opacity="0.8"/>
<path fill-rule="evenodd" clip-rule="evenodd" d="M147.897 101.038C148.049 102.745 146.757 104.217 145.008 104.328C143.392 104.431 141.935 103.194 141.792 101.597C141.64 99.9084 142.965 98.3951 144.681 98.2972C146.308 98.2049 147.755 99.4377 147.897 101.038Z" fill="#FF5353" fill-opacity="0.8"/>
<path fill-rule="evenodd" clip-rule="evenodd" d="M272.221 83.9753C273.965 83.8007 275.405 84.9987 275.555 86.748C275.694 88.3748 274.549 89.8073 272.934 90.03C271.27 90.2591 269.658 89.019 269.455 87.3548C269.252 85.6928 270.519 84.1455 272.221 83.9753Z" fill="#FF5353" fill-opacity="0.8"/>
<path fill-rule="evenodd" clip-rule="evenodd" d="M2.76174 112.55C4.50366 112.387 5.93458 113.597 6.07335 115.35C6.20179 116.975 5.04324 118.404 3.42798 118.612C1.76671 118.827 0.154436 117.567 -0.0312154 115.909C-0.218181 114.247 1.06096 112.709 2.76174 112.55Z" fill="#FF5353" fill-opacity="0.8"/>
<path fill-rule="evenodd" clip-rule="evenodd" d="M20.3107 115.355C20.4514 117.029 19.1059 118.575 17.4367 118.659C15.8474 118.738 14.3786 117.47 14.2405 115.899C14.0947 114.242 15.4792 112.646 17.1155 112.583C18.7193 112.522 20.1791 113.789 20.3107 115.355Z" fill="#FF5353" fill-opacity="0.8"/>
<path fill-rule="evenodd" clip-rule="evenodd" d="M286.558 83.9155C288.158 83.8761 289.576 85.175 289.667 86.762C289.764 88.4432 288.362 89.9805 286.718 89.9933C285.004 90.0067 283.605 88.6204 283.617 86.9202C283.627 85.3219 284.967 83.9546 286.558 83.9155Z" fill="#FF5353" fill-opacity="0.8"/>
<path fill-rule="evenodd" clip-rule="evenodd" d="M156.088 101.694C155.858 100.061 156.959 98.5674 158.583 98.3122C160.301 98.0423 161.895 99.238 162.083 100.937C162.26 102.551 161.08 104.018 159.442 104.221C157.779 104.425 156.319 103.325 156.088 101.694Z" fill="#FF5353" fill-opacity="0.8"/>
<path fill-rule="evenodd" clip-rule="evenodd" d="M300.66 84.0718C302.336 83.9398 303.688 85.1071 303.818 86.7991C303.947 88.4607 302.757 89.8439 301.09 89.9697C299.439 90.0949 298.059 88.8988 297.928 87.2278C297.796 85.5584 298.967 84.2056 300.66 84.0718Z" fill="#FF5353" fill-opacity="0.8"/>
<path fill-rule="evenodd" clip-rule="evenodd" d="M172.934 98.3567C174.545 98.2208 176.021 99.4603 176.162 101.067C176.303 102.671 175.06 104.17 173.472 104.314C171.852 104.46 170.423 103.25 170.267 101.6C170.113 99.9628 171.321 98.4922 172.934 98.3567Z" fill="#FF5353" fill-opacity="0.8"/>
<path fill-rule="evenodd" clip-rule="evenodd" d="M31.0504 112.659C32.7271 112.466 34.1344 113.58 34.3232 115.251C34.5115 116.916 33.3827 118.348 31.7331 118.537C30.0821 118.725 28.6429 117.583 28.452 115.932C28.2599 114.267 29.3839 112.85 31.0504 112.659Z" fill="#FF5353" fill-opacity="0.8"/>
<path fill-rule="evenodd" clip-rule="evenodd" d="M314.669 84.0484C316.278 83.8718 317.8 85.1036 317.941 86.6957C318.083 88.3132 316.85 89.7392 315.198 89.8683C313.642 89.9904 312.26 88.8789 312.056 87.3425C311.846 85.7518 313.057 84.225 314.669 84.0484Z" fill="#FF5353" fill-opacity="0.8"/>
<path fill-rule="evenodd" clip-rule="evenodd" d="M187.136 98.3959C188.761 98.2334 190.254 99.4572 190.37 101.047C190.487 102.648 189.206 104.111 187.602 104.209C186.081 104.303 184.676 103.139 184.491 101.632C184.295 100.037 185.503 98.5589 187.136 98.3959Z" fill="#FF5353" fill-opacity="0.8"/>
<path fill-rule="evenodd" clip-rule="evenodd" d="M45.2174 112.624C46.8238 112.407 48.3574 113.581 48.5533 115.178C48.7514 116.79 47.5616 118.255 45.9153 118.426C44.3244 118.592 42.9836 117.558 42.7506 115.986C42.5028 114.314 43.5806 112.845 45.2174 112.624Z" fill="#FF5353" fill-opacity="0.8"/>
<path fill-rule="evenodd" clip-rule="evenodd" d="M332.083 86.6856C332.226 88.3376 331.042 89.7001 329.375 89.8017C327.842 89.8957 326.463 88.7542 326.292 87.2502C326.114 85.6817 327.354 84.1444 328.921 83.9907C330.534 83.8328 331.94 85.0317 332.083 86.6856Z" fill="#FF5353" fill-opacity="0.8"/>
<path fill-rule="evenodd" clip-rule="evenodd" d="M59.4583 112.759C61.0508 112.599 62.3763 113.647 62.5757 115.224C62.7842 116.873 61.6242 118.363 60.0174 118.511C58.4412 118.656 56.9061 117.345 56.8244 115.782C56.7434 114.239 57.8959 112.916 59.4583 112.759Z" fill="#FF5353" fill-opacity="0.8"/>
<path fill-rule="evenodd" clip-rule="evenodd" d="M201.328 98.344C202.858 98.1705 204.248 99.2592 204.469 100.806C204.708 102.475 203.61 103.902 201.952 104.079C200.414 104.244 199.004 103.169 198.764 101.65C198.519 100.103 199.744 98.5236 201.328 98.344Z" fill="#FF5353" fill-opacity="0.8"/>
<path fill-rule="evenodd" clip-rule="evenodd" d="M76.822 115.348C76.9289 116.859 75.7247 118.283 74.2292 118.416C72.6427 118.556 71.1483 117.233 71.1035 115.647C71.0596 114.111 72.2745 112.799 73.8205 112.712C75.3618 112.625 76.7133 113.812 76.822 115.348Z" fill="#FF5353" fill-opacity="0.8"/>
<path fill-rule="evenodd" clip-rule="evenodd" d="M343.216 84.1392C344.757 84.0089 346.144 85.1538 346.298 86.6833C346.45 88.1916 345.299 89.6411 343.8 89.8281C342.223 90.0243 340.689 88.7479 340.592 87.1573C340.498 85.6223 341.674 84.2695 343.216 84.1392Z" fill="#FF5353" fill-opacity="0.8"/>
<path fill-rule="evenodd" clip-rule="evenodd" d="M216.029 103.985C214.456 104.139 213.13 103.071 212.955 101.506C212.782 99.9532 213.852 98.5743 215.388 98.3709C216.979 98.1602 218.514 99.3929 218.624 100.969C218.731 102.505 217.589 103.831 216.029 103.985Z" fill="#FF5353" fill-opacity="0.8"/>
<path fill-rule="evenodd" clip-rule="evenodd" d="M85.3975 115.716C85.2764 114.2 86.4811 112.775 87.9735 112.671C89.4788 112.565 90.9032 113.789 91.0093 115.278C91.1179 116.799 89.9285 118.184 88.4106 118.302C86.8788 118.422 85.5207 117.256 85.3975 115.716Z" fill="#FF5353" fill-opacity="0.8"/>
<path fill-rule="evenodd" clip-rule="evenodd" d="M360.324 86.6448C360.487 88.2107 359.401 89.5689 357.857 89.7298C356.313 89.8908 354.969 88.786 354.805 87.2207C354.643 85.6706 355.752 84.2755 357.271 84.1185C358.807 83.9598 360.16 85.0803 360.324 86.6448Z" fill="#FF5353" fill-opacity="0.8"/>
<path fill-rule="evenodd" clip-rule="evenodd" d="M232.751 100.981C232.907 102.559 231.758 103.95 230.211 104.057C228.655 104.165 227.34 102.99 227.236 101.398C227.139 99.9098 228.2 98.6308 229.674 98.4582C231.23 98.2758 232.595 99.3951 232.751 100.981Z" fill="#FF5353" fill-opacity="0.8"/>
<path fill-rule="evenodd" clip-rule="evenodd" d="M371.59 84.1388C373.163 84.0168 374.476 85.1611 374.568 86.7341C374.657 88.2849 373.472 89.5716 371.887 89.6421C370.418 89.7079 369.165 88.6127 369.029 87.1441C368.884 85.5624 369.991 84.263 371.59 84.1388Z" fill="#FF5353" fill-opacity="0.8"/>
<path fill-rule="evenodd" clip-rule="evenodd" d="M246.886 100.846C247.082 102.297 245.886 103.81 244.416 103.971C242.943 104.132 241.447 102.916 241.323 101.455C241.205 100.061 242.299 98.6788 243.701 98.4546C245.158 98.2217 246.686 99.3684 246.886 100.846Z" fill="#FF5353" fill-opacity="0.8"/>
<path fill-rule="evenodd" clip-rule="evenodd" d="M102.498 118.292C100.991 118.4 99.7612 117.361 99.6014 115.846C99.4353 114.27 100.566 112.934 102.154 112.827C103.625 112.729 104.914 113.814 105.066 115.279C105.228 116.839 104.086 118.18 102.498 118.292Z" fill="#FF5353" fill-opacity="0.8"/>
<path fill-rule="evenodd" clip-rule="evenodd" d="M116.15 112.785C117.616 112.56 119.147 113.745 119.302 115.226C119.45 116.636 118.364 118.017 116.94 118.231C115.442 118.456 113.944 117.301 113.79 115.802C113.646 114.407 114.746 113 116.15 112.785Z" fill="#FF5353" fill-opacity="0.8"/>
<path fill-rule="evenodd" clip-rule="evenodd" d="M261.004 100.893C261.151 102.383 260.121 103.676 258.649 103.849C257.207 104.018 255.834 102.966 255.628 101.533C255.408 100.006 256.548 98.6057 258.12 98.4716C259.624 98.3439 260.855 99.3775 261.004 100.893Z" fill="#FF5353" fill-opacity="0.8"/>
<path fill-rule="evenodd" clip-rule="evenodd" d="M127.976 115.697C127.853 114.217 128.948 112.943 130.448 112.821C131.951 112.698 133.211 113.769 133.331 115.271C133.448 116.734 132.316 118.075 130.874 118.182C129.42 118.289 128.096 117.154 127.976 115.697Z" fill="#FF5353" fill-opacity="0.8"/>
<path fill-rule="evenodd" clip-rule="evenodd" d="M145.132 118.155C143.635 118.288 142.391 117.218 142.281 115.703C142.181 114.311 143.182 113.072 144.557 112.888C145.96 112.701 147.4 113.831 147.552 115.241C147.709 116.686 146.598 118.024 145.132 118.155Z" fill="#FF5353" fill-opacity="0.8"/>
<path fill-rule="evenodd" clip-rule="evenodd" d="M5.7528 129.603C5.85608 131.075 4.76445 132.307 3.26225 132.415C1.78087 132.521 0.520047 131.428 0.425537 129.955C0.333264 128.517 1.49953 127.178 2.91242 127.1C4.36009 127.019 5.65128 128.157 5.7528 129.603Z" fill="#FF5353" fill-opacity="0.8"/>
<path fill-rule="evenodd" clip-rule="evenodd" d="M272.754 103.839C271.245 104.006 269.998 103.006 269.837 101.499C269.68 100.031 270.735 98.6981 272.177 98.5438C273.577 98.3939 274.989 99.525 275.145 100.923C275.305 102.355 274.222 103.676 272.754 103.839Z" fill="#FF5353" fill-opacity="0.8"/>
<path fill-rule="evenodd" clip-rule="evenodd" d="M161.584 115.189C161.748 116.606 160.817 117.832 159.416 118.043C157.928 118.267 156.56 117.251 156.387 115.797C156.218 114.373 157.37 112.991 158.815 112.883C160.215 112.779 161.421 113.783 161.584 115.189Z" fill="#FF5353" fill-opacity="0.8"/>
<path fill-rule="evenodd" clip-rule="evenodd" d="M286.433 98.589C287.858 98.4458 289.066 99.3932 289.261 100.806C289.465 102.286 288.413 103.643 286.949 103.787C285.47 103.933 284.201 102.832 284.103 101.318C284.01 99.8892 284.997 98.7333 286.433 98.589Z" fill="#FF5353" fill-opacity="0.8"/>
<path fill-rule="evenodd" clip-rule="evenodd" d="M16.9495 127.167C18.3742 127.023 19.5826 127.971 19.7768 129.384C19.9809 130.864 18.9286 132.22 17.4653 132.365C15.9868 132.511 14.7177 131.41 14.6192 129.896C14.527 128.467 15.5138 127.311 16.9495 127.167Z" fill="#FF5353" fill-opacity="0.8"/>
<path fill-rule="evenodd" clip-rule="evenodd" d="M33.9835 129.465C34.165 130.851 33.2085 132.142 31.8396 132.359C30.3965 132.587 29.0131 131.5 28.8803 130.032C28.7567 128.664 29.8025 127.374 31.1581 127.222C32.5184 127.07 33.8037 128.091 33.9835 129.465Z" fill="#FF5353" fill-opacity="0.8"/>
<path fill-rule="evenodd" clip-rule="evenodd" d="M303.465 100.867C303.602 102.247 302.588 103.528 301.225 103.696C299.884 103.863 298.559 102.834 298.368 101.476C298.162 100.023 299.269 98.6406 300.72 98.5362C302.104 98.437 303.326 99.4744 303.465 100.867Z" fill="#FF5353" fill-opacity="0.8"/>
<path fill-rule="evenodd" clip-rule="evenodd" d="M173.606 117.942C172.214 118.14 170.933 117.229 170.682 115.864C170.425 114.455 171.503 113.065 172.974 112.912C174.36 112.768 175.628 113.752 175.806 115.112C175.982 116.46 174.981 117.747 173.606 117.942Z" fill="#FF5353" fill-opacity="0.8"/>
<path fill-rule="evenodd" clip-rule="evenodd" d="M45.3576 127.282C46.7529 127.113 48.0267 128.078 48.2028 129.439C48.376 130.778 47.3492 132.076 45.9811 132.246C44.6125 132.417 43.3068 131.423 43.1287 130.074C42.9512 128.735 43.9766 127.45 45.3576 127.282Z" fill="#FF5353" fill-opacity="0.8"/>
<path fill-rule="evenodd" clip-rule="evenodd" d="M314.817 98.7071C316.237 98.5761 317.417 99.5577 317.539 100.971C317.66 102.363 316.641 103.575 315.252 103.692C313.875 103.808 312.634 102.775 312.513 101.412C312.392 100.038 313.415 98.8361 314.817 98.7071Z" fill="#FF5353" fill-opacity="0.8"/>
<path fill-rule="evenodd" clip-rule="evenodd" d="M189.935 115.165C190.066 116.574 189.012 117.82 187.621 117.903C186.32 117.979 185.124 117 184.955 115.717C184.774 114.357 185.809 113.026 187.171 112.865C188.536 112.704 189.804 113.759 189.935 115.165Z" fill="#FF5353" fill-opacity="0.8"/>
<path fill-rule="evenodd" clip-rule="evenodd" d="M62.2301 129.438C62.378 130.767 61.4795 131.931 60.157 132.127C58.7362 132.337 57.4757 131.378 57.3272 129.974C57.1892 128.672 58.1146 127.462 59.4022 127.259C60.7721 127.043 62.0757 128.047 62.2301 129.438Z" fill="#FF5353" fill-opacity="0.8"/>
<path fill-rule="evenodd" clip-rule="evenodd" d="M326.806 101.368C326.673 99.982 327.75 98.7264 329.134 98.6558C330.439 98.5896 331.584 99.5793 331.715 100.888C331.857 102.307 330.836 103.489 329.391 103.575C328.062 103.655 326.933 102.691 326.806 101.368Z" fill="#FF5353" fill-opacity="0.8"/>
<path fill-rule="evenodd" clip-rule="evenodd" d="M199.169 115.753C199.006 114.409 199.868 113.256 201.192 113.05C202.585 112.832 203.895 113.797 204.058 115.161C204.22 116.514 203.147 117.814 201.783 117.921C200.479 118.022 199.329 117.067 199.169 115.753Z" fill="#FF5353" fill-opacity="0.8"/>
<path fill-rule="evenodd" clip-rule="evenodd" d="M73.8009 127.389C75.1073 127.266 76.3076 128.217 76.4539 129.49C76.6073 130.827 75.4811 132.147 74.1417 132.201C72.8256 132.254 71.7351 131.274 71.629 129.943C71.5221 128.605 72.4483 127.516 73.8009 127.389Z" fill="#FF5353" fill-opacity="0.8"/>
<path fill-rule="evenodd" clip-rule="evenodd" d="M213.434 115.635C213.304 114.317 214.281 113.107 215.574 112.984C216.875 112.861 218.061 113.85 218.192 115.168C218.325 116.507 217.383 117.661 216.048 117.793C214.713 117.926 213.567 116.98 213.434 115.635Z" fill="#FF5353" fill-opacity="0.8"/>
<path fill-rule="evenodd" clip-rule="evenodd" d="M90.4787 129.49C90.6102 130.796 89.5954 132.031 88.3189 132.119C87.0327 132.208 85.8152 131.135 85.7555 129.858C85.6976 128.626 86.615 127.529 87.8359 127.371C89.1412 127.202 90.3455 128.168 90.4787 129.49Z" fill="#FF5353" fill-opacity="0.8"/>
<path fill-rule="evenodd" clip-rule="evenodd" d="M359.955 100.87C360.111 102.178 359.13 103.417 357.846 103.535C356.572 103.653 355.328 102.597 355.24 101.324C355.155 100.101 356.063 98.9754 357.277 98.7981C358.582 98.607 359.798 99.5479 359.955 100.87Z" fill="#FF5353" fill-opacity="0.8"/>
<path fill-rule="evenodd" clip-rule="evenodd" d="M230.123 117.699C228.806 117.815 227.599 116.794 227.535 115.509C227.473 114.282 228.393 113.185 229.618 113.026C230.933 112.856 232.156 113.802 232.3 115.104C232.444 116.4 231.452 117.582 230.123 117.699Z" fill="#FF5353" fill-opacity="0.8"/>
<path fill-rule="evenodd" clip-rule="evenodd" d="M340.997 101.316C340.871 100.013 341.816 98.8223 343.095 98.6713C344.457 98.51 345.71 99.5791 345.787 100.966C345.859 102.297 344.912 103.361 343.557 103.47C342.211 103.579 341.128 102.668 340.997 101.316Z" fill="#FF5353" fill-opacity="0.8"/>
<path fill-rule="evenodd" clip-rule="evenodd" d="M374.177 100.837C374.308 102.001 373.386 103.205 372.212 103.402C370.964 103.613 369.65 102.621 369.506 101.361C369.364 100.119 370.444 98.8361 371.692 98.7664C372.883 98.6997 374.046 99.6678 374.177 100.837Z" fill="#FF5353" fill-opacity="0.8"/>
<path fill-rule="evenodd" clip-rule="evenodd" d="M102.116 127.343C103.272 127.224 104.492 128.167 104.68 129.324C104.879 130.553 103.855 131.871 102.601 132.002C101.347 132.132 100.068 131.048 100.014 129.81C99.9632 128.637 100.964 127.462 102.116 127.343Z" fill="#FF5353" fill-opacity="0.8"/>
<path fill-rule="evenodd" clip-rule="evenodd" d="M243.982 113.089C245.282 112.996 246.429 114.041 246.468 115.354C246.505 116.574 245.531 117.667 244.336 117.748C243.039 117.837 241.871 116.777 241.84 115.485C241.811 114.282 242.802 113.174 243.982 113.089Z" fill="#FF5353" fill-opacity="0.8"/>
<path fill-rule="evenodd" clip-rule="evenodd" d="M114.239 129.891C114.15 128.657 115.097 127.569 116.33 127.485C117.569 127.401 118.635 128.338 118.723 129.588C118.813 130.86 117.922 131.877 116.634 131.971C115.368 132.063 114.33 131.161 114.239 129.891Z" fill="#FF5353" fill-opacity="0.8"/>
<path fill-rule="evenodd" clip-rule="evenodd" d="M258.117 113.147C259.374 112.993 260.47 113.851 260.62 115.104C260.766 116.326 259.87 117.484 258.662 117.636C257.463 117.786 256.302 116.865 256.154 115.646C256.003 114.389 256.857 113.301 258.117 113.147Z" fill="#FF5353" fill-opacity="0.8"/>
<path fill-rule="evenodd" clip-rule="evenodd" d="M130.478 127.448C131.675 127.326 132.869 128.312 132.963 129.499C133.06 130.72 132.095 131.811 130.843 131.895C129.661 131.974 128.672 131.155 128.523 129.974C128.365 128.724 129.257 127.571 130.478 127.448Z" fill="#FF5353" fill-opacity="0.8"/>
<path fill-rule="evenodd" clip-rule="evenodd" d="M274.696 115.193C274.768 116.414 273.787 117.513 272.592 117.549C271.369 117.586 270.35 116.603 270.32 115.359C270.293 114.193 271.143 113.249 272.314 113.144C273.551 113.033 274.622 113.955 274.696 115.193Z" fill="#FF5353" fill-opacity="0.8"/>
<path fill-rule="evenodd" clip-rule="evenodd" d="M5.22118 143.812C5.33577 145.047 4.42202 146.116 3.17813 146.203C2.01857 146.284 1.02667 145.472 0.871802 144.316C0.707404 143.087 1.5754 141.942 2.7791 141.802C3.9787 141.663 5.10765 142.592 5.22118 143.812Z" fill="#FF5353" fill-opacity="0.8"/>
<path fill-rule="evenodd" clip-rule="evenodd" d="M158.868 127.462C159.992 127.37 161.065 128.247 161.192 129.362C161.319 130.463 160.45 131.579 159.342 131.738C158.175 131.906 156.944 130.896 156.891 129.728C156.84 128.599 157.752 127.554 158.868 127.462Z" fill="#FF5353" fill-opacity="0.8"/>
<path fill-rule="evenodd" clip-rule="evenodd" d="M15.1011 144.222C14.9625 143.095 15.7979 142.023 16.9445 141.854C18.1071 141.683 19.1648 142.447 19.3567 143.596C19.5688 144.865 18.7389 145.946 17.4571 146.072C16.2992 146.186 15.2398 145.354 15.1011 144.222Z" fill="#FF5353" fill-opacity="0.8"/>
<path fill-rule="evenodd" clip-rule="evenodd" d="M144.814 127.499C145.989 127.424 146.951 128.239 147.073 129.413C147.203 130.656 146.286 131.75 145.06 131.814C143.817 131.879 142.816 130.926 142.79 129.654C142.766 128.479 143.615 127.574 144.814 127.499Z" fill="#FF5353" fill-opacity="0.8"/>
<path fill-rule="evenodd" clip-rule="evenodd" d="M284.583 115.609C284.466 114.478 285.315 113.422 286.462 113.271C287.71 113.107 288.798 114.01 288.871 115.272C288.941 116.45 288.104 117.397 286.904 117.497C285.75 117.593 284.701 116.74 284.583 115.609Z" fill="#FF5353" fill-opacity="0.8"/>
<path fill-rule="evenodd" clip-rule="evenodd" d="M29.3641 144.056C29.2961 142.917 30.2363 141.886 31.3923 141.833C32.5506 141.78 33.5998 142.749 33.5943 143.868C33.5894 144.962 32.7798 145.843 31.6792 145.952C30.507 146.068 29.4318 145.187 29.3641 144.056Z" fill="#FF5353" fill-opacity="0.8"/>
<path fill-rule="evenodd" clip-rule="evenodd" d="M300.677 113.277C301.846 113.171 302.857 114.045 302.926 115.222C302.992 116.332 302.24 117.233 301.128 117.377C299.943 117.531 298.89 116.725 298.767 115.57C298.643 114.418 299.506 113.382 300.677 113.277Z" fill="#FF5353" fill-opacity="0.8"/>
<path fill-rule="evenodd" clip-rule="evenodd" d="M175.343 129.466C175.452 130.625 174.58 131.649 173.42 131.722C172.263 131.796 171.246 130.89 171.202 129.747C171.161 128.67 171.947 127.759 173.033 127.627C174.222 127.484 175.231 128.287 175.343 129.466Z" fill="#FF5353" fill-opacity="0.8"/>
<path fill-rule="evenodd" clip-rule="evenodd" d="M187.259 127.593C188.298 127.522 189.323 128.377 189.43 129.405C189.549 130.553 188.635 131.566 187.444 131.606C186.338 131.643 185.478 130.834 185.419 129.7C185.361 128.607 186.183 127.667 187.259 127.593Z" fill="#FF5353" fill-opacity="0.8"/>
<path fill-rule="evenodd" clip-rule="evenodd" d="M43.6013 144.208C43.4738 143.143 44.2091 142.178 45.2804 142.005C46.4472 141.816 47.4936 142.608 47.6091 143.769C47.7158 144.84 46.9855 145.817 45.9383 146.002C44.8388 146.196 43.7384 145.352 43.6013 144.208Z" fill="#FF5353" fill-opacity="0.8"/>
<path fill-rule="evenodd" clip-rule="evenodd" d="M317.083 115.099C317.192 116.173 316.447 117.119 315.369 117.274C314.207 117.441 313.16 116.619 313.067 115.467C312.981 114.406 313.745 113.424 314.783 113.261C315.89 113.087 316.965 113.947 317.083 115.099Z" fill="#FF5353" fill-opacity="0.8"/>
<path fill-rule="evenodd" clip-rule="evenodd" d="M57.8954 144.096C57.798 142.997 58.5795 142.063 59.672 141.974C60.7367 141.888 61.7445 142.723 61.8259 143.759C61.9055 144.774 61.0199 145.819 60.0067 145.906C58.9443 145.996 57.9921 145.18 57.8954 144.096Z" fill="#FF5353" fill-opacity="0.8"/>
<path fill-rule="evenodd" clip-rule="evenodd" d="M201.351 127.607C202.391 127.456 203.402 128.226 203.549 129.282C203.703 130.38 202.993 131.322 201.897 131.47C200.778 131.622 199.862 130.932 199.714 129.824C199.568 128.735 200.286 127.762 201.351 127.607Z" fill="#FF5353" fill-opacity="0.8"/>
<path fill-rule="evenodd" clip-rule="evenodd" d="M331.153 115.206C331.241 116.258 330.409 117.254 329.371 117.34C328.32 117.426 327.368 116.6 327.277 115.524C327.184 114.423 327.959 113.498 329.048 113.412C330.131 113.326 331.062 114.119 331.153 115.206Z" fill="#FF5353" fill-opacity="0.8"/>
<path fill-rule="evenodd" clip-rule="evenodd" d="M72.0635 144.144C71.9175 143.097 72.7553 142.046 73.7972 141.97C74.7769 141.897 75.6925 142.645 75.8254 143.626C75.9706 144.7 75.166 145.711 74.1009 145.793C73.1224 145.869 72.1999 145.122 72.0635 144.144Z" fill="#FF5353" fill-opacity="0.8"/>
<path fill-rule="evenodd" clip-rule="evenodd" d="M213.832 129.822C213.731 128.775 214.621 127.762 215.674 127.724C216.651 127.69 217.577 128.486 217.671 129.441C217.772 130.472 216.855 131.525 215.832 131.551C214.875 131.576 213.922 130.752 213.832 129.822Z" fill="#FF5353" fill-opacity="0.8"/>
<path fill-rule="evenodd" clip-rule="evenodd" d="M341.553 115.592C341.39 114.55 342.211 113.49 343.254 113.393C344.227 113.303 345.157 114.043 345.303 115.023C345.464 116.098 344.679 117.113 343.611 117.212C342.635 117.303 341.705 116.571 341.553 115.592Z" fill="#FF5353" fill-opacity="0.8"/>
<path fill-rule="evenodd" clip-rule="evenodd" d="M90.0106 143.536C90.1765 144.484 89.4486 145.478 88.4716 145.638C87.4896 145.8 86.5202 145.116 86.3445 144.138C86.17 143.166 86.8736 142.21 87.878 142.053C88.8876 141.896 89.8392 142.558 90.0106 143.536Z" fill="#FF5353" fill-opacity="0.8"/>
<path fill-rule="evenodd" clip-rule="evenodd" d="M357.487 113.456C358.489 113.358 359.417 114.107 359.504 115.085C359.591 116.062 358.815 116.987 357.829 117.081C356.843 117.176 355.9 116.406 355.811 115.434C355.719 114.437 356.466 113.556 357.487 113.456Z" fill="#FF5353" fill-opacity="0.8"/>
<path fill-rule="evenodd" clip-rule="evenodd" d="M229.701 127.772C230.695 127.612 231.627 128.309 231.766 129.315C231.903 130.314 231.208 131.273 230.241 131.418C229.299 131.56 228.3 130.813 228.148 129.855C227.997 128.9 228.72 127.929 229.701 127.772Z" fill="#FF5353" fill-opacity="0.8"/>
<path fill-rule="evenodd" clip-rule="evenodd" d="M243.933 127.801C244.956 127.647 245.863 128.352 245.955 129.373C246.037 130.278 245.369 131.14 244.473 131.286C243.507 131.442 242.533 130.677 242.444 129.692C242.361 128.765 243.011 127.94 243.933 127.801Z" fill="#FF5353" fill-opacity="0.8"/>
<path fill-rule="evenodd" clip-rule="evenodd" d="M370.023 115.489C369.865 114.518 370.621 113.537 371.599 113.445C372.498 113.36 373.365 114.034 373.509 114.93C373.656 115.844 373.056 116.727 372.156 116.921C371.155 117.137 370.186 116.486 370.023 115.489Z" fill="#FF5353" fill-opacity="0.8"/>
<path fill-rule="evenodd" clip-rule="evenodd" d="M102.214 142.122C103.2 142.012 104.083 142.784 104.142 143.809C104.197 144.761 103.553 145.507 102.586 145.609C101.671 145.705 100.796 145.065 100.638 144.183C100.475 143.273 101.275 142.226 102.214 142.122Z" fill="#FF5353" fill-opacity="0.8"/>
<path fill-rule="evenodd" clip-rule="evenodd" d="M116.283 142.204C117.207 142.07 118.067 142.693 118.212 143.6C118.352 144.482 117.683 145.358 116.766 145.493C115.828 145.63 114.993 145.017 114.86 144.093C114.726 143.159 115.343 142.34 116.283 142.204Z" fill="#FF5353" fill-opacity="0.8"/>
<path fill-rule="evenodd" clip-rule="evenodd" d="M258.232 127.928C259.171 127.871 259.925 128.548 259.984 129.502C260.044 130.455 259.384 131.196 258.421 131.257C257.473 131.318 256.744 130.66 256.678 129.687C256.615 128.742 257.283 127.985 258.232 127.928Z" fill="#FF5353" fill-opacity="0.8"/>
<path fill-rule="evenodd" clip-rule="evenodd" d="M130.53 142.142C131.423 142.021 132.263 142.708 132.362 143.639C132.459 144.563 131.759 145.413 130.857 145.464C130.039 145.511 129.274 144.885 129.147 144.064C129.003 143.138 129.632 142.264 130.53 142.142Z" fill="#FF5353" fill-opacity="0.8"/>
<path fill-rule="evenodd" clip-rule="evenodd" d="M2.81418 156.536C3.724 156.394 4.59535 157.055 4.68783 157.958C4.77308 158.788 4.18714 159.537 3.34001 159.68C2.46261 159.829 1.72181 159.337 1.53654 158.484C1.329 157.531 1.88686 156.68 2.81418 156.536Z" fill="#FF5353" fill-opacity="0.8"/>
<path fill-rule="evenodd" clip-rule="evenodd" d="M272.294 127.959C273.204 127.815 274.077 128.475 274.171 129.378C274.256 130.202 273.667 130.958 272.826 131.102C271.949 131.252 271.206 130.761 271.02 129.909C270.812 128.955 271.367 128.105 272.294 127.959Z" fill="#FF5353" fill-opacity="0.8"/>
<path fill-rule="evenodd" clip-rule="evenodd" d="M146.389 143.646C146.507 144.457 145.907 145.278 145.106 145.404C144.304 145.531 143.489 144.918 143.37 144.099C143.247 143.243 143.803 142.488 144.65 142.363C145.495 142.239 146.268 142.809 146.389 143.646Z" fill="#FF5353" fill-opacity="0.8"/>
<path fill-rule="evenodd" clip-rule="evenodd" d="M15.8099 158.364C15.7021 157.493 16.3108 156.753 17.1912 156.685C17.9892 156.624 18.6625 157.131 18.8054 157.902C18.9572 158.721 18.361 159.58 17.5463 159.716C16.7536 159.849 15.9123 159.194 15.8099 158.364Z" fill="#FF5353" fill-opacity="0.8"/>
<path fill-rule="evenodd" clip-rule="evenodd" d="M159.103 142.302C159.937 142.324 160.6 143.035 160.573 143.879C160.545 144.726 159.821 145.369 158.976 145.299C158.238 145.237 157.603 144.576 157.593 143.859C157.582 143.044 158.321 142.282 159.103 142.302Z" fill="#FF5353" fill-opacity="0.8"/>
<path fill-rule="evenodd" clip-rule="evenodd" d="M286.406 127.975C287.202 127.826 288.011 128.418 288.149 129.249C288.294 130.129 287.777 130.85 286.907 130.981C286.055 131.109 285.263 130.56 285.13 129.75C285.002 128.974 285.614 128.123 286.406 127.975Z" fill="#FF5353" fill-opacity="0.8"/>
<path fill-rule="evenodd" clip-rule="evenodd" d="M32.8942 157.993C32.9707 158.78 32.2404 159.603 31.46 159.609C30.7496 159.616 30.0162 158.974 29.9489 158.286C29.8716 157.496 30.5902 156.691 31.3859 156.678C32.1106 156.667 32.8262 157.29 32.8942 157.993Z" fill="#FF5353" fill-opacity="0.8"/>
<path fill-rule="evenodd" clip-rule="evenodd" d="M300.683 128.035C301.452 127.924 302.184 128.431 302.339 129.179C302.506 129.982 301.848 130.809 300.994 130.873C300.232 130.93 299.508 130.344 299.431 129.609C299.353 128.867 299.928 128.144 300.683 128.035Z" fill="#FF5353" fill-opacity="0.8"/>
<path fill-rule="evenodd" clip-rule="evenodd" d="M171.794 143.933C171.709 143.171 172.234 142.501 173.005 142.388C173.77 142.276 174.495 142.777 174.63 143.512C174.78 144.323 174.146 145.127 173.311 145.185C172.538 145.239 171.878 144.695 171.794 143.933Z" fill="#FF5353" fill-opacity="0.8"/>
<path fill-rule="evenodd" clip-rule="evenodd" d="M46.9753 158.04C47.0106 158.804 46.3657 159.494 45.6419 159.467C44.9871 159.442 44.3568 158.887 44.272 158.259C44.1744 157.537 44.7714 156.819 45.5282 156.748C46.31 156.675 46.9386 157.235 46.9753 158.04Z" fill="#FF5353" fill-opacity="0.8"/>
<path fill-rule="evenodd" clip-rule="evenodd" d="M314.93 128.181C315.71 128.061 316.383 128.588 316.458 129.38C316.523 130.057 316.061 130.722 315.425 130.866C314.737 131.021 313.92 130.476 313.773 129.762C313.621 129.029 314.154 128.301 314.93 128.181Z" fill="#FF5353" fill-opacity="0.8"/>
<path fill-rule="evenodd" clip-rule="evenodd" d="M59.6869 156.785C60.3638 156.75 61.0201 157.321 61.0462 157.967C61.0725 158.625 60.4832 159.293 59.8451 159.33C59.1737 159.369 58.5595 158.813 58.5137 158.125C58.4674 157.416 58.9871 156.822 59.6869 156.785Z" fill="#FF5353" fill-opacity="0.8"/>
<path fill-rule="evenodd" clip-rule="evenodd" d="M329.196 128.206C329.876 128.184 330.524 128.771 330.531 129.415C330.538 130.08 329.94 130.733 329.303 130.756C328.639 130.78 328.025 130.2 327.994 129.522C327.962 128.812 328.495 128.228 329.196 128.206Z" fill="#FF5353" fill-opacity="0.8"/>
<path fill-rule="evenodd" clip-rule="evenodd" d="M187.31 142.482C188.051 142.408 188.76 143.039 188.787 143.795C188.81 144.472 188.281 145.061 187.585 145.133C186.892 145.205 186.253 144.736 186.134 144.07C186.002 143.323 186.57 142.556 187.31 142.482Z" fill="#FF5353" fill-opacity="0.8"/>
<path fill-rule="evenodd" clip-rule="evenodd" d="M201.584 142.549C202.294 142.491 202.91 142.995 202.958 143.675C203.005 144.333 202.447 144.982 201.786 145.039C201.106 145.097 200.498 144.577 200.434 143.882C200.369 143.175 200.857 142.609 201.584 142.549Z" fill="#FF5353" fill-opacity="0.8"/>
<path fill-rule="evenodd" clip-rule="evenodd" d="M343.457 128.25C344.065 128.243 344.579 128.737 344.609 129.356C344.639 129.957 344.16 130.545 343.593 130.603C342.94 130.669 342.306 130.057 342.319 129.371C342.329 128.778 342.857 128.257 343.457 128.25Z" fill="#FF5353" fill-opacity="0.8"/>
<path fill-rule="evenodd" clip-rule="evenodd" d="M215.553 142.584C216.112 142.467 216.764 142.866 216.931 143.43C217.119 144.061 216.617 144.804 215.939 144.9C215.364 144.982 214.773 144.524 214.679 143.922C214.582 143.302 214.971 142.707 215.553 142.584Z" fill="#FF5353" fill-opacity="0.8"/>
<path fill-rule="evenodd" clip-rule="evenodd" d="M73.9044 156.973C74.5188 156.92 75.062 157.358 75.1299 157.962C75.2001 158.585 74.8023 159.131 74.1992 159.238C73.5109 159.36 72.8968 158.861 72.86 158.149C72.829 157.54 73.2844 157.026 73.9044 156.973Z" fill="#FF5353" fill-opacity="0.8"/>
<path fill-rule="evenodd" clip-rule="evenodd" d="M89.2937 158.048C89.2891 158.648 88.721 159.15 88.1166 159.09C87.5895 159.038 87.1897 158.583 87.1933 158.04C87.1966 157.521 87.6356 157.02 88.1215 156.979C88.6939 156.931 89.2981 157.482 89.2937 158.048Z" fill="#FF5353" fill-opacity="0.8"/>
<path fill-rule="evenodd" clip-rule="evenodd" d="M102.222 156.956C102.716 156.895 103.229 157.278 103.336 157.788C103.47 158.423 103.074 158.967 102.437 159.026C101.922 159.073 101.387 158.699 101.293 158.224C101.18 157.651 101.637 157.027 102.222 156.956Z" fill="#FF5353" fill-opacity="0.8"/>
<path fill-rule="evenodd" clip-rule="evenodd" d="M371.811 128.383C372.319 128.369 372.783 128.786 372.844 129.312C372.916 129.944 372.46 130.445 371.815 130.442C371.29 130.44 370.795 130.021 370.753 129.543C370.702 128.958 371.211 128.4 371.811 128.383Z" fill="#FF5353" fill-opacity="0.8"/>
<path fill-rule="evenodd" clip-rule="evenodd" d="M230.021 142.756C230.549 142.749 231.001 143.151 231.056 143.679C231.119 144.285 230.631 144.855 230.045 144.858C229.456 144.861 228.975 144.318 229.018 143.698C229.057 143.151 229.469 142.764 230.021 142.756Z" fill="#FF5353" fill-opacity="0.8"/>
<path fill-rule="evenodd" clip-rule="evenodd" d="M357.582 128.418C358.176 128.422 358.658 128.962 358.615 129.578C358.576 130.132 358.175 130.511 357.614 130.523C356.996 130.537 356.534 130.025 356.59 129.386C356.637 128.85 357.083 128.415 357.582 128.418Z" fill="#FF5353" fill-opacity="0.8"/>
<path fill-rule="evenodd" clip-rule="evenodd" d="M243.191 143.82C243.159 143.339 243.655 142.821 244.142 142.827C244.562 142.833 245.014 143.205 245.082 143.601C245.161 144.068 244.724 144.656 244.254 144.713C243.794 144.767 243.223 144.289 243.191 143.82Z" fill="#FF5353" fill-opacity="0.8"/>
<path fill-rule="evenodd" clip-rule="evenodd" d="M117.504 157.872C117.612 158.334 117.199 158.954 116.708 158.987C116.237 159.019 115.864 158.805 115.683 158.346C115.506 157.894 115.84 157.298 116.337 157.149C116.793 157.014 117.39 157.384 117.504 157.872Z" fill="#FF5353" fill-opacity="0.8"/>
<path fill-rule="evenodd" clip-rule="evenodd" d="M258.489 142.803C258.673 142.979 259.075 143.2 259.206 143.529C259.414 144.05 258.977 144.579 258.441 144.602C257.936 144.625 257.608 144.371 257.467 143.902C257.317 143.402 257.707 142.904 258.489 142.803Z" fill="#FF5353" fill-opacity="0.8"/>
<path fill-rule="evenodd" clip-rule="evenodd" d="M144.663 156.929C145.124 157.336 145.502 157.538 145.669 157.852C145.849 158.191 145.384 158.798 144.997 158.733C144.7 158.684 144.243 158.416 144.217 158.201C144.176 157.869 144.443 157.499 144.663 156.929Z" fill="#FF5353" fill-opacity="0.8"/>
<path fill-rule="evenodd" clip-rule="evenodd" d="M129.884 158C130.023 157.827 130.184 157.484 130.453 157.33C130.828 157.114 131.374 157.455 131.455 157.885C131.535 158.314 131.284 158.584 130.932 158.729C130.524 158.898 129.994 158.579 129.884 158Z" fill="#FF5353" fill-opacity="0.8"/>
<path fill-rule="evenodd" clip-rule="evenodd" d="M3.29431 171.597C3.4406 171.748 3.76716 171.948 3.87713 172.232C4.03134 172.629 3.58684 173.078 3.12417 173.078C2.70441 173.078 2.43971 172.841 2.34636 172.453C2.24757 172.046 2.6652 171.608 3.29431 171.597Z" fill="#FF5353" fill-opacity="0.8"/>
<path fill-rule="evenodd" clip-rule="evenodd" d="M272.361 142.603C272.805 143.007 273.21 143.22 273.326 143.539C273.399 143.738 273.101 144.179 272.857 144.361C272.546 144.594 271.831 144.26 271.845 143.885C271.859 143.523 272.119 143.17 272.361 142.603Z" fill="#FF5353" fill-opacity="0.8"/>
<path fill-rule="evenodd" clip-rule="evenodd" d="M17.1952 171.48C17.4757 171.801 17.7275 171.979 17.8158 172.217C17.9415 172.556 17.5329 172.926 17.1522 172.867C16.8147 172.814 16.5921 172.587 16.6626 172.269C16.7164 172.028 16.9509 171.827 17.1952 171.48Z" fill="#FF5353" fill-opacity="0.8"/>
<path fill-rule="evenodd" clip-rule="evenodd" d="M286.775 142.893C287.02 143.261 287.243 143.465 287.298 143.708C287.379 144.071 286.935 144.392 286.563 144.274C286.252 144.175 286.029 143.944 286.155 143.619C286.244 143.391 286.485 143.221 286.775 142.893Z" fill="#FF5353" fill-opacity="0.8"/>
<path fill-rule="evenodd" clip-rule="evenodd" d="M158.695 157.837C158.823 157.662 158.905 157.481 158.961 157.488C159.143 157.512 159.316 157.605 159.492 157.672C159.448 157.73 159.407 157.836 159.358 157.839C159.16 157.856 158.961 157.841 158.695 157.837Z" fill="#FF5353" fill-opacity="0.8"/>
</g>
<defs>
<clipPath id="clip0">
<rect width="348" height="754" fill="white" transform="translate(-129.302 189.572) rotate(-96.0534)"/>
</clipPath>
</defs>
</svg>
