<svg width="101" height="45" viewBox="0 0 101 45" fill="none" xmlns="http://www.w3.org/2000/svg">
<path d="M74 22.5C74 34.9264 63.4787 45 50.5 45C37.5213 45 27 34.9264 27 22.5C27 10.0736 37.5213 0 50.5 0C63.4787 0 74 10.0736 74 22.5Z" fill="#C4C4C4"/>
<path d="M0 0H50V27H27.551C26.7347 20.9721 21.9388 15.0698 18.8776 12.5581C13.2653 6.90698 3.7415 1.88372 0 0Z" fill="#C4C4C4"/>
<path d="M101 0H51V27H73.449C74.2653 20.9721 79.0612 15.0698 82.1225 12.5581C87.7347 6.90698 97.2585 1.88372 101 0Z" fill="#C4C4C4"/>
</svg>
