<?xml version="1.0" standalone="no"?>
<svg
  width="600"
  height="600"
  viewBox="0 0 600 600"
  xmlns="http://www.w3.org/2000/svg"
>
  <g transform="translate(300,300)">
    <path d="M43.1,-36C79.1,-44,147.3,-71.2,188.1,-62.3C228.8,-53.4,242.1,-8.3,228.3,27.3C214.6,62.9,173.8,89.1,134.1,92.9C94.5,96.7,56,78.1,30.2,71C4.5,64,-8.5,68.4,-40.2,83.5C-72,98.6,-122.5,124.3,-159,117.9C-195.6,111.5,-218,73,-217.8,35C-217.7,-3.1,-194.8,-40.8,-167.5,-66.5C-140.2,-92.2,-108.5,-105.8,-79.8,-101.1C-51.2,-96.3,-25.6,-73.2,-11,-56C3.6,-38.9,7.2,-27.9,43.1,-36Z" fill="#FFB4BC" />
  </g>
</svg>
  