<?xml version="1.0" standalone="no"?>
<svg
  width="600"
  height="600"
  viewBox="0 0 600 600"
  xmlns="http://www.w3.org/2000/svg"
>
  <g transform="translate(300,300)">
    <path d="M88.6,-129.2C100.9,-95.2,87.4,-54.1,77.3,-26.2C67.1,1.7,60.4,16.3,63.4,60.6C66.5,104.9,79.2,178.9,65,188.3C50.7,197.6,9.5,142.5,-40.8,120.6C-91.1,98.6,-150.3,109.8,-156.2,93.3C-162,76.7,-114.5,32.5,-105,-18C-95.4,-68.4,-123.9,-125,-112.7,-159.2C-101.6,-193.4,-50.8,-205.2,-6.3,-197.7C38.1,-190.1,76.3,-163.2,88.6,-129.2Z" fill="#FFB4BC" />
  </g>
</svg>
  